<svg xmlns="http://www.w3.org/2000/svg" xmlns:xlink="http://www.w3.org/1999/xlink" width="771" zoomAndPan="magnify" viewBox="0 0 578.25 408.749983" height="545" preserveAspectRatio="xMidYMid meet" version="1.0"><defs><g/><clipPath id="9bbbb4823e"><path d="M 167 115 L 187 115 L 187 124 L 167 124 Z M 167 115 " clip-rule="nonzero"/></clipPath><clipPath id="a63d211038"><path d="M 75.1875 186.097656 L 229.664062 75.175781 L 334.898438 221.730469 L 180.421875 332.652344 Z M 75.1875 186.097656 " clip-rule="nonzero"/></clipPath><clipPath id="8d14016cb1"><path d="M 75.1875 186.097656 L 229.664062 75.175781 L 334.898438 221.730469 L 180.421875 332.652344 Z M 75.1875 186.097656 " clip-rule="nonzero"/></clipPath><clipPath id="7a6b44a7a4"><path d="M 176 115 L 193 115 L 193 124 L 176 124 Z M 176 115 " clip-rule="nonzero"/></clipPath><clipPath id="4d9e7a7db3"><path d="M 75.1875 186.097656 L 229.664062 75.175781 L 334.898438 221.730469 L 180.421875 332.652344 Z M 75.1875 186.097656 " clip-rule="nonzero"/></clipPath><clipPath id="e99ed9092e"><path d="M 75.1875 186.097656 L 229.664062 75.175781 L 334.898438 221.730469 L 180.421875 332.652344 Z M 75.1875 186.097656 " clip-rule="nonzero"/></clipPath><clipPath id="93da9e343d"><path d="M 190 115 L 203 115 L 203 123 L 190 123 Z M 190 115 " clip-rule="nonzero"/></clipPath><clipPath id="5d87422db4"><path d="M 75.1875 186.097656 L 229.664062 75.175781 L 334.898438 221.730469 L 180.421875 332.652344 Z M 75.1875 186.097656 " clip-rule="nonzero"/></clipPath><clipPath id="9df8366325"><path d="M 75.1875 186.097656 L 229.664062 75.175781 L 334.898438 221.730469 L 180.421875 332.652344 Z M 75.1875 186.097656 " clip-rule="nonzero"/></clipPath><clipPath id="240f39832c"><path d="M 205 115 L 215 115 L 215 123 L 205 123 Z M 205 115 " clip-rule="nonzero"/></clipPath><clipPath id="293946542e"><path d="M 75.1875 186.097656 L 229.664062 75.175781 L 334.898438 221.730469 L 180.421875 332.652344 Z M 75.1875 186.097656 " clip-rule="nonzero"/></clipPath><clipPath id="a9c800e0aa"><path d="M 75.1875 186.097656 L 229.664062 75.175781 L 334.898438 221.730469 L 180.421875 332.652344 Z M 75.1875 186.097656 " clip-rule="nonzero"/></clipPath><clipPath id="469baa5537"><path d="M 217 115 L 229 115 L 229 124 L 217 124 Z M 217 115 " clip-rule="nonzero"/></clipPath><clipPath id="68065665ee"><path d="M 75.1875 186.097656 L 229.664062 75.175781 L 334.898438 221.730469 L 180.421875 332.652344 Z M 75.1875 186.097656 " clip-rule="nonzero"/></clipPath><clipPath id="0abecce54a"><path d="M 75.1875 186.097656 L 229.664062 75.175781 L 334.898438 221.730469 L 180.421875 332.652344 Z M 75.1875 186.097656 " clip-rule="nonzero"/></clipPath><clipPath id="89fc4ebc00"><path d="M 226 115 L 243 115 L 243 125 L 226 125 Z M 226 115 " clip-rule="nonzero"/></clipPath><clipPath id="9560259926"><path d="M 75.1875 186.097656 L 229.664062 75.175781 L 334.898438 221.730469 L 180.421875 332.652344 Z M 75.1875 186.097656 " clip-rule="nonzero"/></clipPath><clipPath id="e2c4ef8163"><path d="M 75.1875 186.097656 L 229.664062 75.175781 L 334.898438 221.730469 L 180.421875 332.652344 Z M 75.1875 186.097656 " clip-rule="nonzero"/></clipPath><clipPath id="412fe045ec"><path d="M 232 116 L 253 116 L 253 126 L 232 126 Z M 232 116 " clip-rule="nonzero"/></clipPath><clipPath id="729abcc298"><path d="M 75.1875 186.097656 L 229.664062 75.175781 L 334.898438 221.730469 L 180.421875 332.652344 Z M 75.1875 186.097656 " clip-rule="nonzero"/></clipPath><clipPath id="115823df68"><path d="M 75.1875 186.097656 L 229.664062 75.175781 L 334.898438 221.730469 L 180.421875 332.652344 Z M 75.1875 186.097656 " clip-rule="nonzero"/></clipPath><clipPath id="9d64c4360b"><path d="M 142 127 L 160 127 L 160 142 L 142 142 Z M 142 127 " clip-rule="nonzero"/></clipPath><clipPath id="a005904a0a"><path d="M 75.1875 186.097656 L 229.664062 75.175781 L 334.898438 221.730469 L 180.421875 332.652344 Z M 75.1875 186.097656 " clip-rule="nonzero"/></clipPath><clipPath id="f2f02603bf"><path d="M 75.1875 186.097656 L 229.664062 75.175781 L 334.898438 221.730469 L 180.421875 332.652344 Z M 75.1875 186.097656 " clip-rule="nonzero"/></clipPath><clipPath id="56647a2c03"><path d="M 151 126 L 169 126 L 169 141 L 151 141 Z M 151 126 " clip-rule="nonzero"/></clipPath><clipPath id="d19075fe7f"><path d="M 75.1875 186.097656 L 229.664062 75.175781 L 334.898438 221.730469 L 180.421875 332.652344 Z M 75.1875 186.097656 " clip-rule="nonzero"/></clipPath><clipPath id="d0d7ef5509"><path d="M 75.1875 186.097656 L 229.664062 75.175781 L 334.898438 221.730469 L 180.421875 332.652344 Z M 75.1875 186.097656 " clip-rule="nonzero"/></clipPath><clipPath id="b82539a8b7"><path d="M 168 125 L 186 125 L 186 140 L 168 140 Z M 168 125 " clip-rule="nonzero"/></clipPath><clipPath id="38dbfda264"><path d="M 75.1875 186.097656 L 229.664062 75.175781 L 334.898438 221.730469 L 180.421875 332.652344 Z M 75.1875 186.097656 " clip-rule="nonzero"/></clipPath><clipPath id="83911a54ff"><path d="M 75.1875 186.097656 L 229.664062 75.175781 L 334.898438 221.730469 L 180.421875 332.652344 Z M 75.1875 186.097656 " clip-rule="nonzero"/></clipPath><clipPath id="1585bb768e"><path d="M 190 125 L 207 125 L 207 140 L 190 140 Z M 190 125 " clip-rule="nonzero"/></clipPath><clipPath id="1cb843530f"><path d="M 75.1875 186.097656 L 229.664062 75.175781 L 334.898438 221.730469 L 180.421875 332.652344 Z M 75.1875 186.097656 " clip-rule="nonzero"/></clipPath><clipPath id="2c090c2f56"><path d="M 75.1875 186.097656 L 229.664062 75.175781 L 334.898438 221.730469 L 180.421875 332.652344 Z M 75.1875 186.097656 " clip-rule="nonzero"/></clipPath><clipPath id="b4160efab7"><path d="M 213 126 L 229 126 L 229 140 L 213 140 Z M 213 126 " clip-rule="nonzero"/></clipPath><clipPath id="72c9e24271"><path d="M 75.1875 186.097656 L 229.664062 75.175781 L 334.898438 221.730469 L 180.421875 332.652344 Z M 75.1875 186.097656 " clip-rule="nonzero"/></clipPath><clipPath id="6737efbdbb"><path d="M 75.1875 186.097656 L 229.664062 75.175781 L 334.898438 221.730469 L 180.421875 332.652344 Z M 75.1875 186.097656 " clip-rule="nonzero"/></clipPath><clipPath id="b1802dd22a"><path d="M 233 126 L 250 126 L 250 141 L 233 141 Z M 233 126 " clip-rule="nonzero"/></clipPath><clipPath id="251a088b5f"><path d="M 75.1875 186.097656 L 229.664062 75.175781 L 334.898438 221.730469 L 180.421875 332.652344 Z M 75.1875 186.097656 " clip-rule="nonzero"/></clipPath><clipPath id="f41ae4856e"><path d="M 75.1875 186.097656 L 229.664062 75.175781 L 334.898438 221.730469 L 180.421875 332.652344 Z M 75.1875 186.097656 " clip-rule="nonzero"/></clipPath><clipPath id="f224a29172"><path d="M 249 127 L 267 127 L 267 143 L 249 143 Z M 249 127 " clip-rule="nonzero"/></clipPath><clipPath id="3cf2cb61b7"><path d="M 75.1875 186.097656 L 229.664062 75.175781 L 334.898438 221.730469 L 180.421875 332.652344 Z M 75.1875 186.097656 " clip-rule="nonzero"/></clipPath><clipPath id="0e76e59514"><path d="M 75.1875 186.097656 L 229.664062 75.175781 L 334.898438 221.730469 L 180.421875 332.652344 Z M 75.1875 186.097656 " clip-rule="nonzero"/></clipPath><clipPath id="7d5e880ca0"><path d="M 259 129 L 277 129 L 277 144 L 259 144 Z M 259 129 " clip-rule="nonzero"/></clipPath><clipPath id="961aa04897"><path d="M 75.1875 186.097656 L 229.664062 75.175781 L 334.898438 221.730469 L 180.421875 332.652344 Z M 75.1875 186.097656 " clip-rule="nonzero"/></clipPath><clipPath id="5a6fcdf8b4"><path d="M 75.1875 186.097656 L 229.664062 75.175781 L 334.898438 221.730469 L 180.421875 332.652344 Z M 75.1875 186.097656 " clip-rule="nonzero"/></clipPath><clipPath id="1917b10d2f"><path d="M 124 145 L 138 145 L 138 165 L 124 165 Z M 124 145 " clip-rule="nonzero"/></clipPath><clipPath id="abbc5a1224"><path d="M 75.1875 186.097656 L 229.664062 75.175781 L 334.898438 221.730469 L 180.421875 332.652344 Z M 75.1875 186.097656 " clip-rule="nonzero"/></clipPath><clipPath id="d4079457d5"><path d="M 75.1875 186.097656 L 229.664062 75.175781 L 334.898438 221.730469 L 180.421875 332.652344 Z M 75.1875 186.097656 " clip-rule="nonzero"/></clipPath><clipPath id="3d04254c8d"><path d="M 131 144 L 146 144 L 146 163 L 131 163 Z M 131 144 " clip-rule="nonzero"/></clipPath><clipPath id="a98135d18b"><path d="M 75.1875 186.097656 L 229.664062 75.175781 L 334.898438 221.730469 L 180.421875 332.652344 Z M 75.1875 186.097656 " clip-rule="nonzero"/></clipPath><clipPath id="3eeeadcaa0"><path d="M 75.1875 186.097656 L 229.664062 75.175781 L 334.898438 221.730469 L 180.421875 332.652344 Z M 75.1875 186.097656 " clip-rule="nonzero"/></clipPath><clipPath id="a4c3520d6e"><path d="M 147 143 L 165 143 L 165 162 L 147 162 Z M 147 143 " clip-rule="nonzero"/></clipPath><clipPath id="d8f56fdcaa"><path d="M 75.1875 186.097656 L 229.664062 75.175781 L 334.898438 221.730469 L 180.421875 332.652344 Z M 75.1875 186.097656 " clip-rule="nonzero"/></clipPath><clipPath id="4f3d0e87ed"><path d="M 75.1875 186.097656 L 229.664062 75.175781 L 334.898438 221.730469 L 180.421875 332.652344 Z M 75.1875 186.097656 " clip-rule="nonzero"/></clipPath><clipPath id="76022d134a"><path d="M 171 142 L 191 142 L 191 161 L 171 161 Z M 171 142 " clip-rule="nonzero"/></clipPath><clipPath id="11776f82b5"><path d="M 75.1875 186.097656 L 229.664062 75.175781 L 334.898438 221.730469 L 180.421875 332.652344 Z M 75.1875 186.097656 " clip-rule="nonzero"/></clipPath><clipPath id="7de82ef07e"><path d="M 75.1875 186.097656 L 229.664062 75.175781 L 334.898438 221.730469 L 180.421875 332.652344 Z M 75.1875 186.097656 " clip-rule="nonzero"/></clipPath><clipPath id="b9f644a241"><path d="M 199 142 L 220 142 L 220 161 L 199 161 Z M 199 142 " clip-rule="nonzero"/></clipPath><clipPath id="094753dfcc"><path d="M 75.1875 186.097656 L 229.664062 75.175781 L 334.898438 221.730469 L 180.421875 332.652344 Z M 75.1875 186.097656 " clip-rule="nonzero"/></clipPath><clipPath id="b05ca758db"><path d="M 75.1875 186.097656 L 229.664062 75.175781 L 334.898438 221.730469 L 180.421875 332.652344 Z M 75.1875 186.097656 " clip-rule="nonzero"/></clipPath><clipPath id="13800de0db"><path d="M 227 143 L 247 143 L 247 162 L 227 162 Z M 227 143 " clip-rule="nonzero"/></clipPath><clipPath id="9298a18ea8"><path d="M 75.1875 186.097656 L 229.664062 75.175781 L 334.898438 221.730469 L 180.421875 332.652344 Z M 75.1875 186.097656 " clip-rule="nonzero"/></clipPath><clipPath id="d84dd8ade2"><path d="M 75.1875 186.097656 L 229.664062 75.175781 L 334.898438 221.730469 L 180.421875 332.652344 Z M 75.1875 186.097656 " clip-rule="nonzero"/></clipPath><clipPath id="d21ceadc01"><path d="M 253 144 L 271 144 L 271 164 L 253 164 Z M 253 144 " clip-rule="nonzero"/></clipPath><clipPath id="112e8f18cb"><path d="M 75.1875 186.097656 L 229.664062 75.175781 L 334.898438 221.730469 L 180.421875 332.652344 Z M 75.1875 186.097656 " clip-rule="nonzero"/></clipPath><clipPath id="be76f7b99e"><path d="M 75.1875 186.097656 L 229.664062 75.175781 L 334.898438 221.730469 L 180.421875 332.652344 Z M 75.1875 186.097656 " clip-rule="nonzero"/></clipPath><clipPath id="c463726a73"><path d="M 272 146 L 287 146 L 287 166 L 272 166 Z M 272 146 " clip-rule="nonzero"/></clipPath><clipPath id="175deb32c0"><path d="M 75.1875 186.097656 L 229.664062 75.175781 L 334.898438 221.730469 L 180.421875 332.652344 Z M 75.1875 186.097656 " clip-rule="nonzero"/></clipPath><clipPath id="6632028af9"><path d="M 75.1875 186.097656 L 229.664062 75.175781 L 334.898438 221.730469 L 180.421875 332.652344 Z M 75.1875 186.097656 " clip-rule="nonzero"/></clipPath><clipPath id="6103609548"><path d="M 281 147 L 294 147 L 294 168 L 281 168 Z M 281 147 " clip-rule="nonzero"/></clipPath><clipPath id="704973e85f"><path d="M 75.1875 186.097656 L 229.664062 75.175781 L 334.898438 221.730469 L 180.421875 332.652344 Z M 75.1875 186.097656 " clip-rule="nonzero"/></clipPath><clipPath id="4a540a73ab"><path d="M 75.1875 186.097656 L 229.664062 75.175781 L 334.898438 221.730469 L 180.421875 332.652344 Z M 75.1875 186.097656 " clip-rule="nonzero"/></clipPath><clipPath id="3f5f5d2992"><path d="M 117 166 L 128 166 L 128 189 L 117 189 Z M 117 166 " clip-rule="nonzero"/></clipPath><clipPath id="6438e151ef"><path d="M 75.1875 186.097656 L 229.664062 75.175781 L 334.898438 221.730469 L 180.421875 332.652344 Z M 75.1875 186.097656 " clip-rule="nonzero"/></clipPath><clipPath id="dca09c6673"><path d="M 75.1875 186.097656 L 229.664062 75.175781 L 334.898438 221.730469 L 180.421875 332.652344 Z M 75.1875 186.097656 " clip-rule="nonzero"/></clipPath><clipPath id="1b3bad8a09"><path d="M 129 164 L 145 164 L 145 187 L 129 187 Z M 129 164 " clip-rule="nonzero"/></clipPath><clipPath id="cc56cc3046"><path d="M 75.1875 186.097656 L 229.664062 75.175781 L 334.898438 221.730469 L 180.421875 332.652344 Z M 75.1875 186.097656 " clip-rule="nonzero"/></clipPath><clipPath id="9552a75192"><path d="M 75.1875 186.097656 L 229.664062 75.175781 L 334.898438 221.730469 L 180.421875 332.652344 Z M 75.1875 186.097656 " clip-rule="nonzero"/></clipPath><clipPath id="256173dbf9"><path d="M 151 163 L 172 163 L 172 186 L 151 186 Z M 151 163 " clip-rule="nonzero"/></clipPath><clipPath id="2a5c2a7b9e"><path d="M 75.1875 186.097656 L 229.664062 75.175781 L 334.898438 221.730469 L 180.421875 332.652344 Z M 75.1875 186.097656 " clip-rule="nonzero"/></clipPath><clipPath id="3bd00bc430"><path d="M 75.1875 186.097656 L 229.664062 75.175781 L 334.898438 221.730469 L 180.421875 332.652344 Z M 75.1875 186.097656 " clip-rule="nonzero"/></clipPath><clipPath id="1cf7d84af9"><path d="M 181 163 L 204 163 L 204 186 L 181 186 Z M 181 163 " clip-rule="nonzero"/></clipPath><clipPath id="002ad8001d"><path d="M 75.1875 186.097656 L 229.664062 75.175781 L 334.898438 221.730469 L 180.421875 332.652344 Z M 75.1875 186.097656 " clip-rule="nonzero"/></clipPath><clipPath id="3e5362d4a2"><path d="M 75.1875 186.097656 L 229.664062 75.175781 L 334.898438 221.730469 L 180.421875 332.652344 Z M 75.1875 186.097656 " clip-rule="nonzero"/></clipPath><clipPath id="8a182e37da"><path d="M 245 165 L 265 165 L 265 188 L 245 188 Z M 245 165 " clip-rule="nonzero"/></clipPath><clipPath id="b696930a15"><path d="M 75.1875 186.097656 L 229.664062 75.175781 L 334.898438 221.730469 L 180.421875 332.652344 Z M 75.1875 186.097656 " clip-rule="nonzero"/></clipPath><clipPath id="a50c0c0272"><path d="M 75.1875 186.097656 L 229.664062 75.175781 L 334.898438 221.730469 L 180.421875 332.652344 Z M 75.1875 186.097656 " clip-rule="nonzero"/></clipPath><clipPath id="e2b60e7e29"><path d="M 113 193 L 116 193 L 116 218 L 113 218 Z M 113 193 " clip-rule="nonzero"/></clipPath><clipPath id="09c28eafeb"><path d="M 75.1875 186.097656 L 229.664062 75.175781 L 334.898438 221.730469 L 180.421875 332.652344 Z M 75.1875 186.097656 " clip-rule="nonzero"/></clipPath><clipPath id="a3769a13b4"><path d="M 75.1875 186.097656 L 229.664062 75.175781 L 334.898438 221.730469 L 180.421875 332.652344 Z M 75.1875 186.097656 " clip-rule="nonzero"/></clipPath><clipPath id="fe6ce732b7"><path d="M 118 191 L 130 191 L 130 216 L 118 216 Z M 118 191 " clip-rule="nonzero"/></clipPath><clipPath id="a4fa885346"><path d="M 75.1875 186.097656 L 229.664062 75.175781 L 334.898438 221.730469 L 180.421875 332.652344 Z M 75.1875 186.097656 " clip-rule="nonzero"/></clipPath><clipPath id="e7890c438a"><path d="M 75.1875 186.097656 L 229.664062 75.175781 L 334.898438 221.730469 L 180.421875 332.652344 Z M 75.1875 186.097656 " clip-rule="nonzero"/></clipPath><clipPath id="06fe5024e0"><path d="M 135 190 L 154 190 L 154 215 L 135 215 Z M 135 190 " clip-rule="nonzero"/></clipPath><clipPath id="d8be17ee6d"><path d="M 75.1875 186.097656 L 229.664062 75.175781 L 334.898438 221.730469 L 180.421875 332.652344 Z M 75.1875 186.097656 " clip-rule="nonzero"/></clipPath><clipPath id="9a2f4deb12"><path d="M 75.1875 186.097656 L 229.664062 75.175781 L 334.898438 221.730469 L 180.421875 332.652344 Z M 75.1875 186.097656 " clip-rule="nonzero"/></clipPath><clipPath id="0eee537f7d"><path d="M 163 189 L 187 189 L 187 214 L 163 214 Z M 163 189 " clip-rule="nonzero"/></clipPath><clipPath id="5efc1d0158"><path d="M 75.1875 186.097656 L 229.664062 75.175781 L 334.898438 221.730469 L 180.421875 332.652344 Z M 75.1875 186.097656 " clip-rule="nonzero"/></clipPath><clipPath id="5ab51b8403"><path d="M 75.1875 186.097656 L 229.664062 75.175781 L 334.898438 221.730469 L 180.421875 332.652344 Z M 75.1875 186.097656 " clip-rule="nonzero"/></clipPath><clipPath id="e78e90a990"><path d="M 196 189 L 221 189 L 221 214 L 196 214 Z M 196 189 " clip-rule="nonzero"/></clipPath><clipPath id="94f0e9f2ed"><path d="M 75.1875 186.097656 L 229.664062 75.175781 L 334.898438 221.730469 L 180.421875 332.652344 Z M 75.1875 186.097656 " clip-rule="nonzero"/></clipPath><clipPath id="0a12981e97"><path d="M 75.1875 186.097656 L 229.664062 75.175781 L 334.898438 221.730469 L 180.421875 332.652344 Z M 75.1875 186.097656 " clip-rule="nonzero"/></clipPath><clipPath id="76dfc1ef03"><path d="M 117 223 L 127 223 L 127 246 L 117 246 Z M 117 223 " clip-rule="nonzero"/></clipPath><clipPath id="deb90d77ff"><path d="M 75.1875 186.097656 L 229.664062 75.175781 L 334.898438 221.730469 L 180.421875 332.652344 Z M 75.1875 186.097656 " clip-rule="nonzero"/></clipPath><clipPath id="95209ce9a6"><path d="M 75.1875 186.097656 L 229.664062 75.175781 L 334.898438 221.730469 L 180.421875 332.652344 Z M 75.1875 186.097656 " clip-rule="nonzero"/></clipPath><clipPath id="715a9759c2"><path d="M 129 221 L 144 221 L 144 244 L 129 244 Z M 129 221 " clip-rule="nonzero"/></clipPath><clipPath id="9faef1143b"><path d="M 75.1875 186.097656 L 229.664062 75.175781 L 334.898438 221.730469 L 180.421875 332.652344 Z M 75.1875 186.097656 " clip-rule="nonzero"/></clipPath><clipPath id="674271f2a1"><path d="M 75.1875 186.097656 L 229.664062 75.175781 L 334.898438 221.730469 L 180.421875 332.652344 Z M 75.1875 186.097656 " clip-rule="nonzero"/></clipPath><clipPath id="0203df1803"><path d="M 150 220 L 172 220 L 172 243 L 150 243 Z M 150 220 " clip-rule="nonzero"/></clipPath><clipPath id="e7e22c4d63"><path d="M 75.1875 186.097656 L 229.664062 75.175781 L 334.898438 221.730469 L 180.421875 332.652344 Z M 75.1875 186.097656 " clip-rule="nonzero"/></clipPath><clipPath id="431f93999f"><path d="M 75.1875 186.097656 L 229.664062 75.175781 L 334.898438 221.730469 L 180.421875 332.652344 Z M 75.1875 186.097656 " clip-rule="nonzero"/></clipPath><clipPath id="75a6ab13c3"><path d="M 180 220 L 203 220 L 203 243 L 180 243 Z M 180 220 " clip-rule="nonzero"/></clipPath><clipPath id="6dece5a9da"><path d="M 75.1875 186.097656 L 229.664062 75.175781 L 334.898438 221.730469 L 180.421875 332.652344 Z M 75.1875 186.097656 " clip-rule="nonzero"/></clipPath><clipPath id="1814097d12"><path d="M 75.1875 186.097656 L 229.664062 75.175781 L 334.898438 221.730469 L 180.421875 332.652344 Z M 75.1875 186.097656 " clip-rule="nonzero"/></clipPath><clipPath id="e6102333c8"><path d="M 124 250 L 137 250 L 137 270 L 124 270 Z M 124 250 " clip-rule="nonzero"/></clipPath><clipPath id="da1ccb2c66"><path d="M 75.1875 186.097656 L 229.664062 75.175781 L 334.898438 221.730469 L 180.421875 332.652344 Z M 75.1875 186.097656 " clip-rule="nonzero"/></clipPath><clipPath id="8019cce9ec"><path d="M 75.1875 186.097656 L 229.664062 75.175781 L 334.898438 221.730469 L 180.421875 332.652344 Z M 75.1875 186.097656 " clip-rule="nonzero"/></clipPath><clipPath id="0ab163a835"><path d="M 131 248 L 146 248 L 146 268 L 131 268 Z M 131 248 " clip-rule="nonzero"/></clipPath><clipPath id="d4421b79e7"><path d="M 75.1875 186.097656 L 229.664062 75.175781 L 334.898438 221.730469 L 180.421875 332.652344 Z M 75.1875 186.097656 " clip-rule="nonzero"/></clipPath><clipPath id="82cba8611c"><path d="M 75.1875 186.097656 L 229.664062 75.175781 L 334.898438 221.730469 L 180.421875 332.652344 Z M 75.1875 186.097656 " clip-rule="nonzero"/></clipPath><clipPath id="e705043af2"><path d="M 146 247 L 164 247 L 164 267 L 146 267 Z M 146 247 " clip-rule="nonzero"/></clipPath><clipPath id="c0d9ff33c2"><path d="M 75.1875 186.097656 L 229.664062 75.175781 L 334.898438 221.730469 L 180.421875 332.652344 Z M 75.1875 186.097656 " clip-rule="nonzero"/></clipPath><clipPath id="8ebea4a7ef"><path d="M 75.1875 186.097656 L 229.664062 75.175781 L 334.898438 221.730469 L 180.421875 332.652344 Z M 75.1875 186.097656 " clip-rule="nonzero"/></clipPath><clipPath id="545d4c31de"><path d="M 141 271 L 159 271 L 159 287 L 141 287 Z M 141 271 " clip-rule="nonzero"/></clipPath><clipPath id="d3a354f195"><path d="M 75.1875 186.097656 L 229.664062 75.175781 L 334.898438 221.730469 L 180.421875 332.652344 Z M 75.1875 186.097656 " clip-rule="nonzero"/></clipPath><clipPath id="d6a4254875"><path d="M 75.1875 186.097656 L 229.664062 75.175781 L 334.898438 221.730469 L 180.421875 332.652344 Z M 75.1875 186.097656 " clip-rule="nonzero"/></clipPath><clipPath id="f8e3def07a"><path d="M 150 269 L 168 269 L 168 286 L 150 286 Z M 150 269 " clip-rule="nonzero"/></clipPath><clipPath id="015cea5452"><path d="M 75.1875 186.097656 L 229.664062 75.175781 L 334.898438 221.730469 L 180.421875 332.652344 Z M 75.1875 186.097656 " clip-rule="nonzero"/></clipPath><clipPath id="5aaddd4cf1"><path d="M 75.1875 186.097656 L 229.664062 75.175781 L 334.898438 221.730469 L 180.421875 332.652344 Z M 75.1875 186.097656 " clip-rule="nonzero"/></clipPath><clipPath id="1ecebea6de"><path d="M 167 269 L 184 269 L 184 285 L 167 285 Z M 167 269 " clip-rule="nonzero"/></clipPath><clipPath id="80c1960df3"><path d="M 75.1875 186.097656 L 229.664062 75.175781 L 334.898438 221.730469 L 180.421875 332.652344 Z M 75.1875 186.097656 " clip-rule="nonzero"/></clipPath><clipPath id="e533818c1f"><path d="M 75.1875 186.097656 L 229.664062 75.175781 L 334.898438 221.730469 L 180.421875 332.652344 Z M 75.1875 186.097656 " clip-rule="nonzero"/></clipPath><clipPath id="a23bffe7cb"><path d="M 188 269 L 204 269 L 204 285 L 188 285 Z M 188 269 " clip-rule="nonzero"/></clipPath><clipPath id="4ad8443ef9"><path d="M 75.1875 186.097656 L 229.664062 75.175781 L 334.898438 221.730469 L 180.421875 332.652344 Z M 75.1875 186.097656 " clip-rule="nonzero"/></clipPath><clipPath id="90feeef719"><path d="M 75.1875 186.097656 L 229.664062 75.175781 L 334.898438 221.730469 L 180.421875 332.652344 Z M 75.1875 186.097656 " clip-rule="nonzero"/></clipPath><clipPath id="8f8542de3f"><path d="M 164 287 L 184 287 L 184 298 L 164 298 Z M 164 287 " clip-rule="nonzero"/></clipPath><clipPath id="65e190ab24"><path d="M 75.1875 186.097656 L 229.664062 75.175781 L 334.898438 221.730469 L 180.421875 332.652344 Z M 75.1875 186.097656 " clip-rule="nonzero"/></clipPath><clipPath id="1235a10b85"><path d="M 75.1875 186.097656 L 229.664062 75.175781 L 334.898438 221.730469 L 180.421875 332.652344 Z M 75.1875 186.097656 " clip-rule="nonzero"/></clipPath><clipPath id="1813b2eeeb"><path d="M 173 287 L 190 287 L 190 298 L 173 298 Z M 173 287 " clip-rule="nonzero"/></clipPath><clipPath id="05ec28de02"><path d="M 75.1875 186.097656 L 229.664062 75.175781 L 334.898438 221.730469 L 180.421875 332.652344 Z M 75.1875 186.097656 " clip-rule="nonzero"/></clipPath><clipPath id="3391e4ba15"><path d="M 75.1875 186.097656 L 229.664062 75.175781 L 334.898438 221.730469 L 180.421875 332.652344 Z M 75.1875 186.097656 " clip-rule="nonzero"/></clipPath><clipPath id="3037218920"><path d="M 187 286 L 199 286 L 199 298 L 187 298 Z M 187 286 " clip-rule="nonzero"/></clipPath><clipPath id="01415eb521"><path d="M 75.1875 186.097656 L 229.664062 75.175781 L 334.898438 221.730469 L 180.421875 332.652344 Z M 75.1875 186.097656 " clip-rule="nonzero"/></clipPath><clipPath id="7d688cf5bb"><path d="M 75.1875 186.097656 L 229.664062 75.175781 L 334.898438 221.730469 L 180.421875 332.652344 Z M 75.1875 186.097656 " clip-rule="nonzero"/></clipPath><clipPath id="6974d170f9"><path d="M 202 287 L 212 287 L 212 298 L 202 298 Z M 202 287 " clip-rule="nonzero"/></clipPath><clipPath id="ab0ff82089"><path d="M 75.1875 186.097656 L 229.664062 75.175781 L 334.898438 221.730469 L 180.421875 332.652344 Z M 75.1875 186.097656 " clip-rule="nonzero"/></clipPath><clipPath id="19d08895ed"><path d="M 75.1875 186.097656 L 229.664062 75.175781 L 334.898438 221.730469 L 180.421875 332.652344 Z M 75.1875 186.097656 " clip-rule="nonzero"/></clipPath><clipPath id="b6acad1d1e"><path d="M 214 287 L 226 287 L 226 298 L 214 298 Z M 214 287 " clip-rule="nonzero"/></clipPath><clipPath id="cf10f48426"><path d="M 75.1875 186.097656 L 229.664062 75.175781 L 334.898438 221.730469 L 180.421875 332.652344 Z M 75.1875 186.097656 " clip-rule="nonzero"/></clipPath><clipPath id="9759010809"><path d="M 75.1875 186.097656 L 229.664062 75.175781 L 334.898438 221.730469 L 180.421875 332.652344 Z M 75.1875 186.097656 " clip-rule="nonzero"/></clipPath><clipPath id="abe53104e3"><path d="M 222 288 L 239 288 L 239 298 L 222 298 Z M 222 288 " clip-rule="nonzero"/></clipPath><clipPath id="780d195c3f"><path d="M 75.1875 186.097656 L 229.664062 75.175781 L 334.898438 221.730469 L 180.421875 332.652344 Z M 75.1875 186.097656 " clip-rule="nonzero"/></clipPath><clipPath id="0e81dcc961"><path d="M 75.1875 186.097656 L 229.664062 75.175781 L 334.898438 221.730469 L 180.421875 332.652344 Z M 75.1875 186.097656 " clip-rule="nonzero"/></clipPath></defs><g clip-path="url(#9bbbb4823e)"><g clip-path="url(#a63d211038)"><g clip-path="url(#8d14016cb1)"><path fill="#ffffff" d="M 178.15625 119.339844 C 168.355469 123.75 167.769531 124.015625 167.164062 123.738281 C 167.863281 121.703125 181.652344 116.527344 186.640625 115.765625 C 186.441406 115.929688 186.441406 115.929688 185.425781 116.3125 C 183.421875 117.066406 181.417969 117.871094 178.15625 119.339844 " fill-opacity="1" fill-rule="nonzero"/></g></g></g><g clip-path="url(#7a6b44a7a4)"><g clip-path="url(#4d9e7a7db3)"><g clip-path="url(#e99ed9092e)"><path fill="#ffffff" d="M 187.972656 118.867188 C 180.316406 123.507812 176.253906 123.761719 176.683594 122.34375 C 177.449219 119.839844 187.980469 115.738281 192.332031 115.386719 C 192.441406 115.386719 192.582031 115.394531 192.6875 115.417969 C 192.707031 115.457031 192.734375 115.511719 192.753906 115.550781 C 192.355469 116.210938 188.152344 118.761719 187.972656 118.867188 " fill-opacity="1" fill-rule="nonzero"/></g></g></g><g clip-path="url(#93da9e343d)"><g clip-path="url(#5d87422db4)"><g clip-path="url(#9df8366325)"><path fill="#ffffff" d="M 200.902344 118.71875 C 197.597656 123.003906 190.695312 123.761719 190.363281 121.375 C 190 118.761719 196.90625 115.371094 200.667969 115.199219 C 203.5 115.300781 201.007812 118.578125 200.902344 118.71875 " fill-opacity="1" fill-rule="nonzero"/></g></g></g><g clip-path="url(#240f39832c)"><g clip-path="url(#293946542e)"><g clip-path="url(#a9c800e0aa)"><path fill="#ffffff" d="M 214.53125 118.902344 C 215.199219 122.394531 209.75 123.972656 206.679688 121.960938 C 203.449219 119.839844 205.796875 116.027344 208.949219 115.347656 C 209.339844 115.265625 209.660156 115.257812 209.921875 115.25 C 212.363281 115.390625 214.214844 117.253906 214.53125 118.902344 " fill-opacity="1" fill-rule="nonzero"/></g></g></g><g clip-path="url(#469baa5537)"><g clip-path="url(#68065665ee)"><g clip-path="url(#0abecce54a)"><path fill="#ffffff" d="M 227.476562 119.375 C 229.839844 121.570312 229.09375 123.1875 226.914062 123.320312 C 221.660156 123.644531 216.261719 117.414062 217.988281 115.773438 C 218.261719 115.515625 218.707031 115.511719 219.035156 115.511719 C 221.25 115.6875 225.257812 117.316406 227.476562 119.375 " fill-opacity="1" fill-rule="nonzero"/></g></g></g><g clip-path="url(#89fc4ebc00)"><g clip-path="url(#9560259926)"><g clip-path="url(#e2c4ef8163)"><path fill="#ffffff" d="M 238.355469 120.101562 C 241.964844 122.15625 242.910156 123.769531 241.71875 124.085938 C 240.910156 124.300781 238.730469 123.894531 235.269531 122.042969 C 232.339844 120.480469 226.597656 116.558594 226.632812 116.023438 C 226.730469 115.949219 226.78125 115.945312 227.058594 115.953125 C 229.144531 116.1875 234.453125 117.882812 238.355469 120.101562 " fill-opacity="1" fill-rule="nonzero"/></g></g></g><g clip-path="url(#412fe045ec)"><g clip-path="url(#729abcc298)"><g clip-path="url(#115823df68)"><path fill="#ffffff" d="M 245.585938 121.003906 C 248.871094 122.535156 252.316406 124.5625 252.15625 125.164062 C 251.972656 125.226562 251.597656 125.359375 248.675781 124.054688 C 248.539062 123.992188 233.089844 116.683594 232.902344 116.558594 L 233.015625 116.539062 C 234.109375 116.742188 239.796875 118.300781 245.585938 121.003906 " fill-opacity="1" fill-rule="nonzero"/></g></g></g><g clip-path="url(#9d64c4360b)"><g clip-path="url(#a005904a0a)"><g clip-path="url(#f2f02603bf)"><path fill="#ffffff" d="M 152.089844 134.257812 C 146.058594 139.480469 142.683594 141.90625 142.058594 141.476562 C 141.804688 139.242188 155.402344 128.511719 159.1875 127.382812 L 159.328125 127.375 C 159.359375 127.636719 159.398438 127.925781 152.089844 134.257812 " fill-opacity="1" fill-rule="nonzero"/></g></g></g><g clip-path="url(#56647a2c03)"><g clip-path="url(#d19075fe7f)"><g clip-path="url(#d0d7ef5509)"><path fill="#ffffff" d="M 164.648438 133.277344 C 158.710938 139.394531 151.992188 142.011719 151.917969 139.171875 C 151.816406 135.324219 162.671875 127.105469 167.625 126.457031 C 171.199219 126.488281 164.714844 133.210938 164.648438 133.277344 " fill-opacity="1" fill-rule="nonzero"/></g></g></g><g clip-path="url(#b82539a8b7)"><g clip-path="url(#38dbfda264)"><g clip-path="url(#83911a54ff)"><path fill="#ffffff" d="M 183.957031 132.75 C 179.777344 139.402344 170.097656 141.609375 168.871094 137.40625 C 167.679688 133.316406 175.734375 126.308594 182.132812 125.871094 C 187.09375 126.011719 185.132812 130.886719 183.957031 132.75 " fill-opacity="1" fill-rule="nonzero"/></g></g></g><g clip-path="url(#1585bb768e)"><g clip-path="url(#1cb843530f)"><g clip-path="url(#2c090c2f56)"><path fill="#ffffff" d="M 206.101562 132.785156 C 204.6875 139.863281 194.082031 141.429688 191.222656 136.550781 C 188.761719 132.34375 194.113281 125.980469 200.3125 125.738281 C 205.230469 125.988281 206.65625 130.011719 206.101562 132.785156 " fill-opacity="1" fill-rule="nonzero"/></g></g></g><g clip-path="url(#b4160efab7)"><g clip-path="url(#72c9e24271)"><g clip-path="url(#6737efbdbb)"><path fill="#ffffff" d="M 228.246094 133.335938 C 229.636719 139.148438 222.339844 141.503906 217.121094 138.324219 C 211.355469 134.8125 212.289062 127.617188 217.304688 126.265625 C 218 126.078125 218.636719 126.066406 219.148438 126.058594 C 224.257812 126.4375 227.597656 130.625 228.246094 133.335938 " fill-opacity="1" fill-rule="nonzero"/></g></g></g><g clip-path="url(#b1802dd22a)"><g clip-path="url(#251a088b5f)"><g clip-path="url(#f41ae4856e)"><path fill="#ffffff" d="M 248.132812 134.332031 C 250.863281 138.644531 248.699219 141.691406 243.765625 140.492188 C 236.332031 138.679688 231.078125 129.238281 234.863281 127.121094 C 235.488281 126.773438 236.09375 126.773438 236.730469 126.773438 C 241.105469 127.230469 246.054688 131.054688 248.132812 134.332031 " fill-opacity="1" fill-rule="nonzero"/></g></g></g><g clip-path="url(#f224a29172)"><g clip-path="url(#3cf2cb61b7)"><g clip-path="url(#0e76e59514)"><path fill="#ffffff" d="M 263.472656 135.707031 C 266.988281 139.46875 267.46875 142.414062 264.519531 142.132812 C 258.542969 141.574219 247.941406 129.546875 250.210938 127.980469 C 250.457031 127.808594 250.847656 127.820312 251.164062 127.828125 C 254.636719 128.382812 260.332031 132.347656 263.472656 135.707031 " fill-opacity="1" fill-rule="nonzero"/></g></g></g><g clip-path="url(#7d5e880ca0)"><g clip-path="url(#961aa04897)"><g clip-path="url(#5a6fcdf8b4)"><path fill="#ffffff" d="M 271.234375 137.210938 C 273.996094 139.742188 276.898438 142.875 276.738281 143.757812 C 274.980469 144.800781 259.949219 129.351562 259.910156 129.132812 C 259.972656 129.121094 260.054688 129.101562 260.117188 129.089844 C 261.597656 129.582031 266.542969 132.910156 271.234375 137.210938 " fill-opacity="1" fill-rule="nonzero"/></g></g></g><g clip-path="url(#1917b10d2f)"><g clip-path="url(#abbc5a1224)"><g clip-path="url(#d4079457d5)"><path fill="#ffffff" d="M 131.085938 154.878906 C 125.355469 163.453125 124.601562 164.0625 124.316406 164.292969 L 124.230469 164.214844 C 124.304688 163.949219 124.394531 163.707031 124.878906 162.808594 L 124.902344 162.765625 C 129.882812 154.375 129.882812 154.375 132.867188 150.464844 L 136.027344 146.546875 C 136.65625 145.8125 136.816406 145.667969 137.007812 145.519531 L 137.066406 145.582031 C 136.929688 145.917969 136.703125 146.480469 131.085938 154.878906 " fill-opacity="1" fill-rule="nonzero"/></g></g></g><g clip-path="url(#3d04254c8d)"><g clip-path="url(#a98135d18b)"><g clip-path="url(#3eeeadcaa0)"><path fill="#ffffff" d="M 142.429688 153.40625 C 138.136719 160.316406 132.207031 164.699219 131.300781 161.632812 C 130.089844 157.542969 139.296875 145.066406 144.269531 144.066406 C 147.160156 144.054688 144.675781 149.789062 142.429688 153.40625 " fill-opacity="1" fill-rule="nonzero"/></g></g></g><g clip-path="url(#a4c3520d6e)"><g clip-path="url(#d8f56fdcaa)"><g clip-path="url(#4f3d0e87ed)"><path fill="#ffffff" d="M 163.132812 152.414062 C 159.277344 160.265625 149.023438 164.316406 147.230469 158.695312 C 145.617188 153.636719 152.855469 143.726562 160.210938 143 C 165.363281 143.109375 165.019531 148.570312 163.132812 152.414062 " fill-opacity="1" fill-rule="nonzero"/></g></g></g><g clip-path="url(#76022d134a)"><g clip-path="url(#11776f82b5)"><g clip-path="url(#7de82ef07e)"><path fill="#ffffff" d="M 190.398438 152.097656 C 188.074219 160.371094 175.683594 163.839844 171.992188 157.25 C 169.023438 151.960938 174.816406 142.964844 183.558594 142.488281 C 190.425781 142.773438 191.398438 148.535156 190.398438 152.097656 " fill-opacity="1" fill-rule="nonzero"/></g></g></g><g clip-path="url(#b9f644a241)"><g clip-path="url(#094753dfcc)"><g clip-path="url(#b05ca758db)"><path fill="#ffffff" d="M 219.144531 152.484375 C 218.789062 160.484375 207.832031 163.933594 201.902344 157.914062 C 196.683594 152.613281 200.207031 142.902344 209.488281 142.628906 C 216.429688 143.070312 219.3125 148.65625 219.144531 152.484375 " fill-opacity="1" fill-rule="nonzero"/></g></g></g><g clip-path="url(#13800de0db)"><g clip-path="url(#9298a18ea8)"><g clip-path="url(#d84dd8ade2)"><path fill="#ffffff" d="M 246.441406 153.484375 C 247.800781 160.628906 240.167969 164.3125 233.269531 159.84375 C 225.421875 154.765625 226.613281 144.609375 233.359375 143.457031 C 233.847656 143.371094 234.515625 143.359375 235.011719 143.355469 C 241.679688 143.953125 245.710938 149.640625 246.441406 153.484375 " fill-opacity="1" fill-rule="nonzero"/></g></g></g><g clip-path="url(#d21ceadc01)"><g clip-path="url(#112e8f18cb)"><g clip-path="url(#be76f7b99e)"><path fill="#ffffff" d="M 269.386719 155.015625 C 271.761719 161.011719 268.433594 164.828125 262.792969 162.578125 C 254.179688 159.140625 250.371094 146.777344 255.605469 144.820312 C 256.261719 144.578125 256.941406 144.582031 257.488281 144.589844 C 263.078125 145.320312 267.890625 151.246094 269.386719 155.015625 " fill-opacity="1" fill-rule="nonzero"/></g></g></g><g clip-path="url(#c463726a73)"><g clip-path="url(#175deb32c0)"><g clip-path="url(#6632028af9)"><path fill="#ffffff" d="M 284.640625 156.921875 C 287.566406 162.246094 287.441406 165.953125 284.371094 165.007812 C 278.660156 163.257812 269.554688 147.6875 273.425781 146.292969 C 273.640625 146.214844 273.953125 146.230469 274.183594 146.238281 C 277.808594 147.070312 282.480469 152.984375 284.640625 156.921875 " fill-opacity="1" fill-rule="nonzero"/></g></g></g><g clip-path="url(#6103609548)"><g clip-path="url(#704973e85f)"><g clip-path="url(#4a540a73ab)"><path fill="#ffffff" d="M 293.40625 166.25 C 293.648438 166.769531 293.695312 166.9375 293.738281 167.101562 L 293.652344 167.171875 C 292.339844 166.003906 282.140625 149.496094 281.59375 148.042969 L 281.648438 147.980469 C 281.851562 148.15625 281.9375 148.242188 282.441406 148.867188 L 285.578125 153.042969 C 290.898438 161.203125 290.898438 161.203125 293.089844 165.601562 L 293.234375 165.894531 C 293.285156 166 293.355469 166.144531 293.40625 166.25 " fill-opacity="1" fill-rule="nonzero"/></g></g></g><g clip-path="url(#3f5f5d2992)"><g clip-path="url(#6438e151ef)"><g clip-path="url(#dca09c6673)"><path fill="#ffffff" d="M 125.253906 177.269531 C 122.730469 184.851562 119.074219 189.953125 118.011719 187.378906 C 116.519531 183.753906 121.90625 167.527344 125.96875 166.082031 C 128.179688 166.027344 126.707031 172.914062 125.253906 177.269531 " fill-opacity="1" fill-rule="nonzero"/></g></g></g><g clip-path="url(#1b3bad8a09)"><g clip-path="url(#cc56cc3046)"><g clip-path="url(#9552a75192)"><path fill="#ffffff" d="M 143.511719 175.84375 C 140.761719 184.765625 132.933594 189.617188 130.210938 184.085938 C 127.414062 178.398438 132.796875 165.578125 139.84375 164.5625 C 144.75 164.625 144.945312 171.199219 143.511719 175.84375 " fill-opacity="1" fill-rule="nonzero"/></g></g></g><g clip-path="url(#256173dbf9)"><g clip-path="url(#2a5c2a7b9e)"><g clip-path="url(#3bd00bc430)"><path fill="#ffffff" d="M 171.574219 175.078125 C 169.214844 184.894531 156.707031 189.03125 152.457031 181.402344 C 148.871094 174.96875 154.273438 164.296875 163.691406 163.597656 C 171.386719 163.839844 172.609375 170.769531 171.574219 175.078125 " fill-opacity="1" fill-rule="nonzero"/></g></g></g><g clip-path="url(#1cf7d84af9)"><g clip-path="url(#002ad8001d)"><g clip-path="url(#3e5362d4a2)"><path fill="#ffffff" d="M 203.757812 175.128906 C 202.378906 185.054688 189.285156 188.800781 183.457031 180.941406 C 178.707031 174.539062 183.394531 163.816406 193.585938 163.378906 C 201.671875 163.820312 204.402344 170.515625 203.757812 175.128906 " fill-opacity="1" fill-rule="nonzero"/></g></g></g><g clip-path="url(#8a182e37da)"><g clip-path="url(#b696930a15)"><g clip-path="url(#a50c0c0272)"><path fill="#ffffff" d="M 264.847656 177.378906 C 265.601562 186.292969 256.828125 190.191406 249.949219 183.996094 C 242.648438 177.425781 244.261719 165.582031 252.523438 165.085938 C 252.804688 165.066406 253.179688 165.085938 253.460938 165.082031 C 260.667969 165.878906 264.457031 172.753906 264.847656 177.378906 " fill-opacity="1" fill-rule="nonzero"/></g></g></g><g clip-path="url(#e2b60e7e29)"><g clip-path="url(#09c28eafeb)"><g clip-path="url(#a3769a13b4)"><path fill="#ffffff" d="M 115.914062 206.132812 C 115.800781 210.363281 115.359375 217.550781 114.429688 217.636719 C 114.125 217.359375 113.785156 216.484375 113.566406 212.117188 L 113.492188 206.175781 L 113.894531 198.957031 C 114.355469 194.222656 114.800781 193.75 114.988281 193.550781 L 115.113281 193.539062 C 115.992188 194.367188 116.03125 201.84375 115.914062 206.132812 " fill-opacity="1" fill-rule="nonzero"/></g></g></g><g clip-path="url(#fe6ce732b7)"><g clip-path="url(#a4fa885346)"><g clip-path="url(#e7890c438a)"><path fill="#ffffff" d="M 129.328125 204.390625 C 128.800781 212.921875 124.691406 218.261719 121.476562 214.589844 C 117.179688 209.6875 118.328125 193.027344 124.375 191.671875 C 128.328125 191.695312 129.648438 199.121094 129.328125 204.390625 " fill-opacity="1" fill-rule="nonzero"/></g></g></g><g clip-path="url(#06fe5024e0)"><g clip-path="url(#d8be17ee6d)"><g clip-path="url(#9a2f4deb12)"><path fill="#ffffff" d="M 153.808594 203.21875 C 152.855469 213.183594 143.445312 218 138.320312 211.148438 C 133.273438 204.402344 136.289062 191.230469 144.980469 190.296875 C 151.902344 190.476562 154.308594 197.960938 153.808594 203.21875 " fill-opacity="1" fill-rule="nonzero"/></g></g></g><g clip-path="url(#0eee537f7d)"><g clip-path="url(#5efc1d0158)"><g clip-path="url(#5ab51b8403)"><path fill="#ffffff" d="M 186.042969 202.84375 C 184.867188 213.402344 172.339844 217.535156 166.035156 209.441406 C 160.511719 202.34375 164.507812 190.273438 175.148438 189.632812 C 184.109375 190.046875 186.585938 197.953125 186.042969 202.84375 " fill-opacity="1" fill-rule="nonzero"/></g></g></g><g clip-path="url(#e78e90a990)"><g clip-path="url(#94f0e9f2ed)"><g clip-path="url(#0a12981e97)"><path fill="#ffffff" d="M 220.03125 203.296875 C 218.792969 213.90625 205.800781 217.730469 199.277344 209.402344 C 193.609375 202.160156 197.726562 190.1875 208.660156 189.8125 C 218.011719 190.453125 220.597656 198.425781 220.03125 203.296875 " fill-opacity="1" fill-rule="nonzero"/></g></g></g><g clip-path="url(#76dfc1ef03)"><g clip-path="url(#deb90d77ff)"><g clip-path="url(#95209ce9a6)"><path fill="#ffffff" d="M 125.417969 235.089844 C 126.980469 241.207031 126.894531 246.820312 124.277344 245.09375 C 120.28125 242.453125 114.703125 224.78125 118.691406 223.160156 C 121.21875 223.121094 124.148438 230.113281 125.417969 235.089844 " fill-opacity="1" fill-rule="nonzero"/></g></g></g><g clip-path="url(#715a9759c2)"><g clip-path="url(#9faef1143b)"><g clip-path="url(#674271f2a1)"><path fill="#ffffff" d="M 143.40625 233.691406 C 144.59375 241.417969 140.597656 246.105469 135.632812 242.8125 C 128.457031 238.050781 126.550781 223.207031 132.90625 221.636719 C 133.113281 221.582031 133.398438 221.558594 133.609375 221.527344 C 139.09375 221.617188 142.640625 228.695312 143.40625 233.691406 " fill-opacity="1" fill-rule="nonzero"/></g></g></g><g clip-path="url(#0203df1803)"><g clip-path="url(#e7e22c4d63)"><g clip-path="url(#431f93999f)"><path fill="#ffffff" d="M 171.0625 232.9375 C 171.296875 242.097656 162.148438 246.160156 155.28125 239.949219 C 148.847656 234.128906 148.707031 221.324219 159.25 220.484375 C 167.1875 220.761719 170.933594 227.933594 171.0625 232.9375 " fill-opacity="1" fill-rule="nonzero"/></g></g></g><g clip-path="url(#75a6ab13c3)"><g clip-path="url(#6dece5a9da)"><g clip-path="url(#1814097d12)"><path fill="#ffffff" d="M 202.777344 232.984375 C 201.753906 243.25 189.433594 246.339844 183.105469 237.921875 C 177.921875 231.023438 181.328125 220.722656 191.390625 220.25 C 200.074219 220.75 203.277344 228 202.777344 232.984375 " fill-opacity="1" fill-rule="nonzero"/></g></g></g><g clip-path="url(#e6102333c8)"><g clip-path="url(#da1ccb2c66)"><g clip-path="url(#8019cce9ec)"><path fill="#ffffff" d="M 132.261719 260.550781 C 135.644531 265.8125 137.214844 268.722656 136.921875 269.195312 C 134.945312 269.355469 123.242188 251.871094 124.273438 250.304688 C 125.535156 250.203125 131.148438 258.824219 132.261719 260.550781 " fill-opacity="1" fill-rule="nonzero"/></g></g></g><g clip-path="url(#0ab163a835)"><g clip-path="url(#d4421b79e7)"><g clip-path="url(#82cba8611c)"><path fill="#ffffff" d="M 143.152344 259.136719 C 145.601562 263.996094 146.238281 268.527344 143.0625 267.695312 C 137.089844 266.132812 128.359375 251.589844 131.808594 248.945312 C 132.015625 248.789062 132.367188 248.695312 132.621094 248.632812 C 136.03125 248.644531 140.589844 254.054688 143.152344 259.136719 " fill-opacity="1" fill-rule="nonzero"/></g></g></g><g clip-path="url(#e705043af2)"><g clip-path="url(#c0d9ff33c2)"><g clip-path="url(#8ebea4a7ef)"><path fill="#ffffff" d="M 163.035156 258.1875 C 164.882812 264.539062 161.433594 269.207031 154.925781 265.390625 C 146.527344 260.464844 143.414062 248.757812 150.164062 247.496094 C 150.398438 247.453125 150.714844 247.433594 150.953125 247.40625 C 157.171875 247.5625 161.761719 253.804688 163.035156 258.1875 " fill-opacity="1" fill-rule="nonzero"/></g></g></g><g clip-path="url(#545d4c31de)"><g clip-path="url(#d3a354f195)"><g clip-path="url(#d6a4254875)"><path fill="#ffffff" d="M 152.824219 279.445312 C 157.183594 283.628906 159.023438 285.839844 158.292969 286.023438 C 155.296875 286.761719 139.546875 272.929688 141.4375 271.222656 C 141.488281 271.179688 141.574219 271.160156 141.636719 271.132812 C 143.875 271.097656 150.207031 276.933594 152.824219 279.445312 " fill-opacity="1" fill-rule="nonzero"/></g></g></g><g clip-path="url(#f8e3def07a)"><g clip-path="url(#015cea5452)"><g clip-path="url(#5aaddd4cf1)"><path fill="#ffffff" d="M 164.648438 278.527344 C 166.59375 281.101562 169.066406 285.386719 165.972656 285.125 C 160.4375 284.660156 148.3125 273.625 151.367188 270.421875 C 151.695312 270.078125 152.179688 269.996094 152.570312 269.933594 C 156.449219 269.996094 161.546875 274.429688 164.648438 278.527344 " fill-opacity="1" fill-rule="nonzero"/></g></g></g><g clip-path="url(#1ecebea6de)"><g clip-path="url(#80c1960df3)"><g clip-path="url(#e533818c1f)"><path fill="#ffffff" d="M 182.820312 278.03125 C 184.640625 282.984375 182.40625 286.449219 176.28125 283.492188 C 168.386719 279.679688 164.460938 270.976562 169.914062 269.382812 C 170.339844 269.257812 170.929688 269.207031 171.367188 269.171875 C 177.453125 269.382812 181.550781 274.582031 182.820312 278.03125 " fill-opacity="1" fill-rule="nonzero"/></g></g></g><g clip-path="url(#a23bffe7cb)"><g clip-path="url(#4ad8443ef9)"><g clip-path="url(#90feeef719)"><path fill="#ffffff" d="M 203.660156 278.0625 C 203.339844 284.476562 196.378906 287.089844 191.011719 280.773438 C 186.882812 275.910156 188.042969 269.324219 194.929688 269 C 200.660156 269.328125 203.871094 273.867188 203.660156 278.0625 " fill-opacity="1" fill-rule="nonzero"/></g></g></g><g clip-path="url(#8f8542de3f)"><g clip-path="url(#65e190ab24)"><g clip-path="url(#1235a10b85)"><path fill="#ffffff" d="M 177.25 293.761719 C 183.730469 297.402344 183.730469 297.402344 183.929688 297.617188 C 183.902344 297.648438 183.867188 297.691406 183.839844 297.71875 C 179.054688 297.65625 162.632812 289.332031 164.738281 288.042969 C 164.796875 288.007812 164.890625 288.003906 164.953125 287.984375 C 167.003906 288 171.753906 290.667969 177.25 293.761719 " fill-opacity="1" fill-rule="nonzero"/></g></g></g><g clip-path="url(#1813b2eeeb)"><g clip-path="url(#05ec28de02)"><g clip-path="url(#3391e4ba15)"><path fill="#ffffff" d="M 186.363281 293.324219 C 190.890625 297.269531 189.773438 297.332031 189.40625 297.347656 C 185.613281 297.550781 172 289.921875 174.210938 287.632812 C 174.441406 287.390625 174.875 287.339844 175.191406 287.296875 C 179.273438 287.414062 184.773438 291.941406 186.363281 293.324219 " fill-opacity="1" fill-rule="nonzero"/></g></g></g><g clip-path="url(#3037218920)"><g clip-path="url(#01415eb521)"><g clip-path="url(#7d688cf5bb)"><path fill="#ffffff" d="M 198.363281 293.183594 C 198.898438 294.519531 200.238281 298.714844 195.082031 296.511719 C 189.074219 293.945312 185.496094 288.761719 188.695312 287.265625 C 189.1875 287.035156 189.757812 286.996094 190.179688 286.96875 C 194.175781 287.164062 197.222656 290.328125 198.363281 293.183594 " fill-opacity="1" fill-rule="nonzero"/></g></g></g><g clip-path="url(#6974d170f9)"><g clip-path="url(#ab0ff82089)"><g clip-path="url(#19d08895ed)"><path fill="#ffffff" d="M 211.015625 293.351562 C 209.320312 297.867188 204.730469 298.882812 202.535156 293.695312 C 201.234375 290.617188 202.644531 287.21875 206.824219 287.058594 C 210.816406 287.347656 212.089844 290.488281 211.015625 293.351562 " fill-opacity="1" fill-rule="nonzero"/></g></g></g><g clip-path="url(#b6acad1d1e)"><g clip-path="url(#cf10f48426)"><g clip-path="url(#9759010809)"><path fill="#ffffff" d="M 223.03125 293.792969 C 221.644531 295.011719 213.867188 300.230469 214.332031 295.597656 C 214.65625 292.363281 218.273438 287.609375 223.207031 287.527344 C 226.882812 287.902344 226.066406 291.132812 223.03125 293.792969 " fill-opacity="1" fill-rule="nonzero"/></g></g></g><g clip-path="url(#abe53104e3)"><g clip-path="url(#780d195c3f)"><g clip-path="url(#0e81dcc961)"><path fill="#ffffff" d="M 233.132812 294.46875 C 229.152344 296.625 222.722656 298.730469 222.964844 297.554688 C 223.1875 296.46875 232.222656 288.296875 237.636719 288.316406 C 240.152344 288.707031 238.167969 291.042969 236.214844 292.519531 C 235.351562 293.167969 234.316406 293.824219 233.132812 294.46875 " fill-opacity="1" fill-rule="nonzero"/></g></g></g><g fill="#ffffff" fill-opacity="1"><g transform="translate(236.504393, 223.483007)"><g><path d="M 5.921875 0.1875 C 4.660156 0.1875 3.5 -0.0820312 2.4375 -0.625 C 1.375 -1.164062 0.507812 -1.9375 -0.15625 -2.9375 L 1.21875 -4.5 C 2.425781 -2.707031 4.003906 -1.8125 5.953125 -1.8125 C 8.660156 -1.8125 10.015625 -3.421875 10.015625 -6.640625 L 10.015625 -19.90625 L 2 -19.90625 L 2 -21.90625 L 12.296875 -21.90625 L 12.296875 -6.734375 C 12.296875 -4.429688 11.757812 -2.703125 10.6875 -1.546875 C 9.613281 -0.390625 8.023438 0.1875 5.921875 0.1875 Z M 5.921875 0.1875 "/></g></g></g><g fill="#ffffff" fill-opacity="1"><g transform="translate(258.751533, 223.483007)"><g><path d="M 19.0625 -2 L 19.0625 0 L 3.5625 0 L 3.5625 -21.90625 L 18.59375 -21.90625 L 18.59375 -19.90625 L 5.890625 -19.90625 L 5.890625 -12.109375 L 17.21875 -12.109375 L 17.21875 -10.140625 L 5.890625 -10.140625 L 5.890625 -2 Z M 19.0625 -2 "/></g></g></g><g fill="#ffffff" fill-opacity="1"><g transform="translate(286.25443, 223.483007)"><g><path d="M 18.53125 0 L 13.515625 -7.046875 C 12.953125 -6.984375 12.367188 -6.953125 11.765625 -6.953125 L 5.890625 -6.953125 L 5.890625 0 L 3.5625 0 L 3.5625 -21.90625 L 11.765625 -21.90625 C 14.566406 -21.90625 16.757812 -21.238281 18.34375 -19.90625 C 19.925781 -18.570312 20.71875 -16.734375 20.71875 -14.390625 C 20.71875 -12.679688 20.285156 -11.238281 19.421875 -10.0625 C 18.554688 -8.882812 17.320312 -8.035156 15.71875 -7.515625 L 21.0625 0 Z M 11.703125 -8.921875 C 13.867188 -8.921875 15.523438 -9.398438 16.671875 -10.359375 C 17.828125 -11.316406 18.40625 -12.660156 18.40625 -14.390625 C 18.40625 -16.171875 17.828125 -17.535156 16.671875 -18.484375 C 15.523438 -19.429688 13.867188 -19.90625 11.703125 -19.90625 L 5.890625 -19.90625 L 5.890625 -8.921875 Z M 11.703125 -8.921875 "/></g></g></g><g fill="#ffffff" fill-opacity="1"><g transform="translate(315.446686, 223.483007)"><g><path d="M 19.0625 -2 L 19.0625 0 L 3.5625 0 L 3.5625 -21.90625 L 18.59375 -21.90625 L 18.59375 -19.90625 L 5.890625 -19.90625 L 5.890625 -12.109375 L 17.21875 -12.109375 L 17.21875 -10.140625 L 5.890625 -10.140625 L 5.890625 -2 Z M 19.0625 -2 "/></g></g></g><g fill="#ffffff" fill-opacity="1"><g transform="translate(342.949581, 223.483007)"><g><path d="M 26.328125 -21.90625 L 26.328125 0 L 24.09375 0 L 24.09375 -17.53125 L 15.484375 -2.78125 L 14.390625 -2.78125 L 5.796875 -17.4375 L 5.796875 0 L 3.5625 0 L 3.5625 -21.90625 L 5.484375 -21.90625 L 14.984375 -5.671875 L 24.40625 -21.90625 Z M 26.328125 -21.90625 "/></g></g></g><g fill="#ffffff" fill-opacity="1"><g transform="translate(379.39976, 223.483007)"><g><path d="M 11.078125 -7.578125 L 11.078125 0 L 8.796875 0 L 8.796875 -7.578125 L 0.03125 -21.90625 L 2.5 -21.90625 L 10.015625 -9.609375 L 17.53125 -21.90625 L 19.84375 -21.90625 Z M 11.078125 -7.578125 "/></g></g></g><g fill="#ffffff" fill-opacity="1"><g transform="translate(227.356367, 267.23269)"><g><path d="M 19 -10.953125 L 21.21875 -10.953125 L 21.21875 -2.59375 C 20.195312 -1.695312 18.984375 -1.007812 17.578125 -0.53125 C 16.179688 -0.0507812 14.710938 0.1875 13.171875 0.1875 C 10.984375 0.1875 9.007812 -0.289062 7.25 -1.25 C 5.5 -2.207031 4.125 -3.535156 3.125 -5.234375 C 2.125 -6.941406 1.625 -8.847656 1.625 -10.953125 C 1.625 -13.054688 2.125 -14.957031 3.125 -16.65625 C 4.125 -18.363281 5.5 -19.695312 7.25 -20.65625 C 9.007812 -21.613281 10.992188 -22.09375 13.203125 -22.09375 C 14.878906 -22.09375 16.414062 -21.828125 17.8125 -21.296875 C 19.207031 -20.765625 20.382812 -19.976562 21.34375 -18.9375 L 19.90625 -17.46875 C 18.175781 -19.175781 15.972656 -20.03125 13.296875 -20.03125 C 11.523438 -20.03125 9.925781 -19.640625 8.5 -18.859375 C 7.070312 -18.078125 5.945312 -16.988281 5.125 -15.59375 C 4.3125 -14.207031 3.90625 -12.660156 3.90625 -10.953125 C 3.90625 -9.242188 4.3125 -7.695312 5.125 -6.3125 C 5.945312 -4.9375 7.066406 -3.851562 8.484375 -3.0625 C 9.898438 -2.269531 11.492188 -1.875 13.265625 -1.875 C 15.523438 -1.875 17.4375 -2.4375 19 -3.5625 Z M 19 -10.953125 "/></g></g></g><g fill="#ffffff" fill-opacity="1"><g transform="translate(258.112828, 267.23269)"><g><path d="M 12.390625 0.1875 C 9.554688 0.1875 7.34375 -0.625 5.75 -2.25 C 4.164062 -3.875 3.375 -6.242188 3.375 -9.359375 L 3.375 -21.90625 L 5.703125 -21.90625 L 5.703125 -9.453125 C 5.703125 -6.910156 6.273438 -5.007812 7.421875 -3.75 C 8.566406 -2.5 10.222656 -1.875 12.390625 -1.875 C 14.585938 -1.875 16.257812 -2.5 17.40625 -3.75 C 18.550781 -5.007812 19.125 -6.910156 19.125 -9.453125 L 19.125 -21.90625 L 21.375 -21.90625 L 21.375 -9.359375 C 21.375 -6.242188 20.585938 -3.875 19.015625 -2.25 C 17.441406 -0.625 15.234375 0.1875 12.390625 0.1875 Z M 12.390625 0.1875 "/></g></g></g><g fill="#ffffff" fill-opacity="1"><g transform="translate(289.46368, 267.23269)"><g><path d="M 3.5625 -21.90625 L 5.890625 -21.90625 L 5.890625 0 L 3.5625 0 Z M 3.5625 -21.90625 "/></g></g></g><g fill="#ffffff" fill-opacity="1"><g transform="translate(305.485268, 267.23269)"><g><path d="M 3.5625 -21.90625 L 5.890625 -21.90625 L 5.890625 -2 L 18.15625 -2 L 18.15625 0 L 3.5625 0 Z M 3.5625 -21.90625 "/></g></g></g><g fill="#ffffff" fill-opacity="1"><g transform="translate(330.485413, 267.23269)"><g><path d="M 3.5625 -21.90625 L 5.890625 -21.90625 L 5.890625 -2 L 18.15625 -2 L 18.15625 0 L 3.5625 0 Z M 3.5625 -21.90625 "/></g></g></g><g fill="#ffffff" fill-opacity="1"><g transform="translate(355.485558, 267.23269)"><g><path d="M 19.0625 -2 L 19.0625 0 L 3.5625 0 L 3.5625 -21.90625 L 18.59375 -21.90625 L 18.59375 -19.90625 L 5.890625 -19.90625 L 5.890625 -12.109375 L 17.21875 -12.109375 L 17.21875 -10.140625 L 5.890625 -10.140625 L 5.890625 -2 Z M 19.0625 -2 "/></g></g></g><g fill="#ffffff" fill-opacity="1"><g transform="translate(382.988453, 267.23269)"><g><path d="M 21.875 -21.90625 L 21.875 0 L 19.96875 0 L 5.890625 -17.78125 L 5.890625 0 L 3.5625 0 L 3.5625 -21.90625 L 5.484375 -21.90625 L 19.59375 -4.125 L 19.59375 -21.90625 Z M 21.875 -21.90625 "/></g></g></g></svg>