<svg xmlns="http://www.w3.org/2000/svg" xmlns:xlink="http://www.w3.org/1999/xlink" width="464" zoomAndPan="magnify" viewBox="0 0 348 269.999989" height="360" preserveAspectRatio="xMidYMid meet" version="1.0"><defs><g/><clipPath id="484d2cce71"><path d="M 117 94 L 127 94 L 127 98 L 117 98 Z M 117 94 " clip-rule="nonzero"/></clipPath><clipPath id="eccf12bf05"><path d="M 75.53125 126.660156 L 146.808594 75.480469 L 195.367188 143.101562 L 124.089844 194.28125 Z M 75.53125 126.660156 " clip-rule="nonzero"/></clipPath><clipPath id="f2e033913d"><path d="M 75.53125 126.660156 L 146.808594 75.480469 L 195.367188 143.101562 L 124.089844 194.28125 Z M 75.53125 126.660156 " clip-rule="nonzero"/></clipPath><clipPath id="162dbd5c3a"><path d="M 122 94 L 130 94 L 130 98 L 122 98 Z M 122 94 " clip-rule="nonzero"/></clipPath><clipPath id="faab9b6032"><path d="M 75.53125 126.660156 L 146.808594 75.480469 L 195.367188 143.101562 L 124.089844 194.28125 Z M 75.53125 126.660156 " clip-rule="nonzero"/></clipPath><clipPath id="b09dc39f34"><path d="M 75.53125 126.660156 L 146.808594 75.480469 L 195.367188 143.101562 L 124.089844 194.28125 Z M 75.53125 126.660156 " clip-rule="nonzero"/></clipPath><clipPath id="eda3be9f67"><path d="M 128 93 L 135 93 L 135 98 L 128 98 Z M 128 93 " clip-rule="nonzero"/></clipPath><clipPath id="97bb039a1a"><path d="M 75.53125 126.660156 L 146.808594 75.480469 L 195.367188 143.101562 L 124.089844 194.28125 Z M 75.53125 126.660156 " clip-rule="nonzero"/></clipPath><clipPath id="49fad5001f"><path d="M 75.53125 126.660156 L 146.808594 75.480469 L 195.367188 143.101562 L 124.089844 194.28125 Z M 75.53125 126.660156 " clip-rule="nonzero"/></clipPath><clipPath id="add9fa632a"><path d="M 135 93 L 140 93 L 140 98 L 135 98 Z M 135 93 " clip-rule="nonzero"/></clipPath><clipPath id="9c16118969"><path d="M 75.53125 126.660156 L 146.808594 75.480469 L 195.367188 143.101562 L 124.089844 194.28125 Z M 75.53125 126.660156 " clip-rule="nonzero"/></clipPath><clipPath id="40dffdf30e"><path d="M 75.53125 126.660156 L 146.808594 75.480469 L 195.367188 143.101562 L 124.089844 194.28125 Z M 75.53125 126.660156 " clip-rule="nonzero"/></clipPath><clipPath id="7ef8a06ba0"><path d="M 141 94 L 147 94 L 147 98 L 141 98 Z M 141 94 " clip-rule="nonzero"/></clipPath><clipPath id="5c72902b96"><path d="M 75.53125 126.660156 L 146.808594 75.480469 L 195.367188 143.101562 L 124.089844 194.28125 Z M 75.53125 126.660156 " clip-rule="nonzero"/></clipPath><clipPath id="c16842e231"><path d="M 75.53125 126.660156 L 146.808594 75.480469 L 195.367188 143.101562 L 124.089844 194.28125 Z M 75.53125 126.660156 " clip-rule="nonzero"/></clipPath><clipPath id="28dc1561ad"><path d="M 145 94 L 153 94 L 153 99 L 145 99 Z M 145 94 " clip-rule="nonzero"/></clipPath><clipPath id="34f93e11ab"><path d="M 75.53125 126.660156 L 146.808594 75.480469 L 195.367188 143.101562 L 124.089844 194.28125 Z M 75.53125 126.660156 " clip-rule="nonzero"/></clipPath><clipPath id="612ff72f92"><path d="M 75.53125 126.660156 L 146.808594 75.480469 L 195.367188 143.101562 L 124.089844 194.28125 Z M 75.53125 126.660156 " clip-rule="nonzero"/></clipPath><clipPath id="5763340c24"><path d="M 148 94 L 158 94 L 158 99 L 148 99 Z M 148 94 " clip-rule="nonzero"/></clipPath><clipPath id="bc0256807b"><path d="M 75.53125 126.660156 L 146.808594 75.480469 L 195.367188 143.101562 L 124.089844 194.28125 Z M 75.53125 126.660156 " clip-rule="nonzero"/></clipPath><clipPath id="a9182b9343"><path d="M 75.53125 126.660156 L 146.808594 75.480469 L 195.367188 143.101562 L 124.089844 194.28125 Z M 75.53125 126.660156 " clip-rule="nonzero"/></clipPath><clipPath id="3b42b761d0"><path d="M 106 99 L 115 99 L 115 107 L 106 107 Z M 106 99 " clip-rule="nonzero"/></clipPath><clipPath id="e41e1794e3"><path d="M 75.53125 126.660156 L 146.808594 75.480469 L 195.367188 143.101562 L 124.089844 194.28125 Z M 75.53125 126.660156 " clip-rule="nonzero"/></clipPath><clipPath id="2361cf857c"><path d="M 75.53125 126.660156 L 146.808594 75.480469 L 195.367188 143.101562 L 124.089844 194.28125 Z M 75.53125 126.660156 " clip-rule="nonzero"/></clipPath><clipPath id="35cf2062b2"><path d="M 110 99 L 119 99 L 119 106 L 110 106 Z M 110 99 " clip-rule="nonzero"/></clipPath><clipPath id="4938b87dbb"><path d="M 75.53125 126.660156 L 146.808594 75.480469 L 195.367188 143.101562 L 124.089844 194.28125 Z M 75.53125 126.660156 " clip-rule="nonzero"/></clipPath><clipPath id="847526ab1a"><path d="M 75.53125 126.660156 L 146.808594 75.480469 L 195.367188 143.101562 L 124.089844 194.28125 Z M 75.53125 126.660156 " clip-rule="nonzero"/></clipPath><clipPath id="c205d4338a"><path d="M 118 98 L 127 98 L 127 106 L 118 106 Z M 118 98 " clip-rule="nonzero"/></clipPath><clipPath id="01cd47e5b6"><path d="M 75.53125 126.660156 L 146.808594 75.480469 L 195.367188 143.101562 L 124.089844 194.28125 Z M 75.53125 126.660156 " clip-rule="nonzero"/></clipPath><clipPath id="7c46c29975"><path d="M 75.53125 126.660156 L 146.808594 75.480469 L 195.367188 143.101562 L 124.089844 194.28125 Z M 75.53125 126.660156 " clip-rule="nonzero"/></clipPath><clipPath id="0c7a2cae56"><path d="M 128 98 L 136 98 L 136 106 L 128 106 Z M 128 98 " clip-rule="nonzero"/></clipPath><clipPath id="154fc109c6"><path d="M 75.53125 126.660156 L 146.808594 75.480469 L 195.367188 143.101562 L 124.089844 194.28125 Z M 75.53125 126.660156 " clip-rule="nonzero"/></clipPath><clipPath id="2d6d935e88"><path d="M 75.53125 126.660156 L 146.808594 75.480469 L 195.367188 143.101562 L 124.089844 194.28125 Z M 75.53125 126.660156 " clip-rule="nonzero"/></clipPath><clipPath id="f63d73915e"><path d="M 139 98 L 147 98 L 147 106 L 139 106 Z M 139 98 " clip-rule="nonzero"/></clipPath><clipPath id="ebd75c30c3"><path d="M 75.53125 126.660156 L 146.808594 75.480469 L 195.367188 143.101562 L 124.089844 194.28125 Z M 75.53125 126.660156 " clip-rule="nonzero"/></clipPath><clipPath id="29c0b7f191"><path d="M 75.53125 126.660156 L 146.808594 75.480469 L 195.367188 143.101562 L 124.089844 194.28125 Z M 75.53125 126.660156 " clip-rule="nonzero"/></clipPath><clipPath id="f23bda9bcd"><path d="M 148 99 L 156 99 L 156 106 L 148 106 Z M 148 99 " clip-rule="nonzero"/></clipPath><clipPath id="b04fcdbcb6"><path d="M 75.53125 126.660156 L 146.808594 75.480469 L 195.367188 143.101562 L 124.089844 194.28125 Z M 75.53125 126.660156 " clip-rule="nonzero"/></clipPath><clipPath id="7d51c2b90b"><path d="M 75.53125 126.660156 L 146.808594 75.480469 L 195.367188 143.101562 L 124.089844 194.28125 Z M 75.53125 126.660156 " clip-rule="nonzero"/></clipPath><clipPath id="9f931a82c4"><path d="M 156 99 L 164 99 L 164 107 L 156 107 Z M 156 99 " clip-rule="nonzero"/></clipPath><clipPath id="b60e07d973"><path d="M 75.53125 126.660156 L 146.808594 75.480469 L 195.367188 143.101562 L 124.089844 194.28125 Z M 75.53125 126.660156 " clip-rule="nonzero"/></clipPath><clipPath id="5b69af042a"><path d="M 75.53125 126.660156 L 146.808594 75.480469 L 195.367188 143.101562 L 124.089844 194.28125 Z M 75.53125 126.660156 " clip-rule="nonzero"/></clipPath><clipPath id="b5f058aff3"><path d="M 160 100 L 169 100 L 169 108 L 160 108 Z M 160 100 " clip-rule="nonzero"/></clipPath><clipPath id="3172565d85"><path d="M 75.53125 126.660156 L 146.808594 75.480469 L 195.367188 143.101562 L 124.089844 194.28125 Z M 75.53125 126.660156 " clip-rule="nonzero"/></clipPath><clipPath id="d6e9df14f6"><path d="M 75.53125 126.660156 L 146.808594 75.480469 L 195.367188 143.101562 L 124.089844 194.28125 Z M 75.53125 126.660156 " clip-rule="nonzero"/></clipPath><clipPath id="e4e09e49fd"><path d="M 98 107 L 105 107 L 105 117 L 98 117 Z M 98 107 " clip-rule="nonzero"/></clipPath><clipPath id="a7f70447a1"><path d="M 75.53125 126.660156 L 146.808594 75.480469 L 195.367188 143.101562 L 124.089844 194.28125 Z M 75.53125 126.660156 " clip-rule="nonzero"/></clipPath><clipPath id="ecc46f6a9b"><path d="M 75.53125 126.660156 L 146.808594 75.480469 L 195.367188 143.101562 L 124.089844 194.28125 Z M 75.53125 126.660156 " clip-rule="nonzero"/></clipPath><clipPath id="097c32c7b0"><path d="M 101 107 L 109 107 L 109 116 L 101 116 Z M 101 107 " clip-rule="nonzero"/></clipPath><clipPath id="98eee23301"><path d="M 75.53125 126.660156 L 146.808594 75.480469 L 195.367188 143.101562 L 124.089844 194.28125 Z M 75.53125 126.660156 " clip-rule="nonzero"/></clipPath><clipPath id="12c11d0371"><path d="M 75.53125 126.660156 L 146.808594 75.480469 L 195.367188 143.101562 L 124.089844 194.28125 Z M 75.53125 126.660156 " clip-rule="nonzero"/></clipPath><clipPath id="bc8791367f"><path d="M 108 106 L 117 106 L 117 116 L 108 116 Z M 108 106 " clip-rule="nonzero"/></clipPath><clipPath id="7e7ee4445f"><path d="M 75.53125 126.660156 L 146.808594 75.480469 L 195.367188 143.101562 L 124.089844 194.28125 Z M 75.53125 126.660156 " clip-rule="nonzero"/></clipPath><clipPath id="a5ccc0c824"><path d="M 75.53125 126.660156 L 146.808594 75.480469 L 195.367188 143.101562 L 124.089844 194.28125 Z M 75.53125 126.660156 " clip-rule="nonzero"/></clipPath><clipPath id="f1103d91b4"><path d="M 119 106 L 129 106 L 129 115 L 119 115 Z M 119 106 " clip-rule="nonzero"/></clipPath><clipPath id="3c70ba1088"><path d="M 75.53125 126.660156 L 146.808594 75.480469 L 195.367188 143.101562 L 124.089844 194.28125 Z M 75.53125 126.660156 " clip-rule="nonzero"/></clipPath><clipPath id="07512fff8d"><path d="M 75.53125 126.660156 L 146.808594 75.480469 L 195.367188 143.101562 L 124.089844 194.28125 Z M 75.53125 126.660156 " clip-rule="nonzero"/></clipPath><clipPath id="b6636843da"><path d="M 132 106 L 142 106 L 142 116 L 132 116 Z M 132 106 " clip-rule="nonzero"/></clipPath><clipPath id="73d30c6698"><path d="M 75.53125 126.660156 L 146.808594 75.480469 L 195.367188 143.101562 L 124.089844 194.28125 Z M 75.53125 126.660156 " clip-rule="nonzero"/></clipPath><clipPath id="ba007537bc"><path d="M 75.53125 126.660156 L 146.808594 75.480469 L 195.367188 143.101562 L 124.089844 194.28125 Z M 75.53125 126.660156 " clip-rule="nonzero"/></clipPath><clipPath id="bb255ee6ec"><path d="M 145 106 L 155 106 L 155 116 L 145 116 Z M 145 106 " clip-rule="nonzero"/></clipPath><clipPath id="5291eeb645"><path d="M 75.53125 126.660156 L 146.808594 75.480469 L 195.367188 143.101562 L 124.089844 194.28125 Z M 75.53125 126.660156 " clip-rule="nonzero"/></clipPath><clipPath id="f5beaa97f8"><path d="M 75.53125 126.660156 L 146.808594 75.480469 L 195.367188 143.101562 L 124.089844 194.28125 Z M 75.53125 126.660156 " clip-rule="nonzero"/></clipPath><clipPath id="928dcf4228"><path d="M 157 107 L 166 107 L 166 117 L 157 117 Z M 157 107 " clip-rule="nonzero"/></clipPath><clipPath id="98ee18a8ca"><path d="M 75.53125 126.660156 L 146.808594 75.480469 L 195.367188 143.101562 L 124.089844 194.28125 Z M 75.53125 126.660156 " clip-rule="nonzero"/></clipPath><clipPath id="a6162be8f0"><path d="M 75.53125 126.660156 L 146.808594 75.480469 L 195.367188 143.101562 L 124.089844 194.28125 Z M 75.53125 126.660156 " clip-rule="nonzero"/></clipPath><clipPath id="d4fadba997"><path d="M 166 108 L 174 108 L 174 117 L 166 117 Z M 166 108 " clip-rule="nonzero"/></clipPath><clipPath id="e4c4b54300"><path d="M 75.53125 126.660156 L 146.808594 75.480469 L 195.367188 143.101562 L 124.089844 194.28125 Z M 75.53125 126.660156 " clip-rule="nonzero"/></clipPath><clipPath id="786b8974fc"><path d="M 75.53125 126.660156 L 146.808594 75.480469 L 195.367188 143.101562 L 124.089844 194.28125 Z M 75.53125 126.660156 " clip-rule="nonzero"/></clipPath><clipPath id="281658b5cc"><path d="M 170 109 L 177 109 L 177 118 L 170 118 Z M 170 109 " clip-rule="nonzero"/></clipPath><clipPath id="284d687ba0"><path d="M 75.53125 126.660156 L 146.808594 75.480469 L 195.367188 143.101562 L 124.089844 194.28125 Z M 75.53125 126.660156 " clip-rule="nonzero"/></clipPath><clipPath id="975eed412c"><path d="M 75.53125 126.660156 L 146.808594 75.480469 L 195.367188 143.101562 L 124.089844 194.28125 Z M 75.53125 126.660156 " clip-rule="nonzero"/></clipPath><clipPath id="23534d5630"><path d="M 95 117 L 100 117 L 100 128 L 95 128 Z M 95 117 " clip-rule="nonzero"/></clipPath><clipPath id="61304f2a6c"><path d="M 75.53125 126.660156 L 146.808594 75.480469 L 195.367188 143.101562 L 124.089844 194.28125 Z M 75.53125 126.660156 " clip-rule="nonzero"/></clipPath><clipPath id="979a2836ee"><path d="M 75.53125 126.660156 L 146.808594 75.480469 L 195.367188 143.101562 L 124.089844 194.28125 Z M 75.53125 126.660156 " clip-rule="nonzero"/></clipPath><clipPath id="0ca427ddf2"><path d="M 100 116 L 108 116 L 108 127 L 100 127 Z M 100 116 " clip-rule="nonzero"/></clipPath><clipPath id="a71cd8ebfd"><path d="M 75.53125 126.660156 L 146.808594 75.480469 L 195.367188 143.101562 L 124.089844 194.28125 Z M 75.53125 126.660156 " clip-rule="nonzero"/></clipPath><clipPath id="a3ed7c3e5b"><path d="M 75.53125 126.660156 L 146.808594 75.480469 L 195.367188 143.101562 L 124.089844 194.28125 Z M 75.53125 126.660156 " clip-rule="nonzero"/></clipPath><clipPath id="ed10e8a6a9"><path d="M 110 116 L 121 116 L 121 127 L 110 127 Z M 110 116 " clip-rule="nonzero"/></clipPath><clipPath id="410b07e533"><path d="M 75.53125 126.660156 L 146.808594 75.480469 L 195.367188 143.101562 L 124.089844 194.28125 Z M 75.53125 126.660156 " clip-rule="nonzero"/></clipPath><clipPath id="98d0f4ada0"><path d="M 75.53125 126.660156 L 146.808594 75.480469 L 195.367188 143.101562 L 124.089844 194.28125 Z M 75.53125 126.660156 " clip-rule="nonzero"/></clipPath><clipPath id="eadc424868"><path d="M 124 116 L 135 116 L 135 127 L 124 127 Z M 124 116 " clip-rule="nonzero"/></clipPath><clipPath id="e9312dd916"><path d="M 75.53125 126.660156 L 146.808594 75.480469 L 195.367188 143.101562 L 124.089844 194.28125 Z M 75.53125 126.660156 " clip-rule="nonzero"/></clipPath><clipPath id="643f94642f"><path d="M 75.53125 126.660156 L 146.808594 75.480469 L 195.367188 143.101562 L 124.089844 194.28125 Z M 75.53125 126.660156 " clip-rule="nonzero"/></clipPath><clipPath id="8aff29ee14"><path d="M 154 116 L 164 116 L 164 128 L 154 128 Z M 154 116 " clip-rule="nonzero"/></clipPath><clipPath id="77899e7675"><path d="M 75.53125 126.660156 L 146.808594 75.480469 L 195.367188 143.101562 L 124.089844 194.28125 Z M 75.53125 126.660156 " clip-rule="nonzero"/></clipPath><clipPath id="fd22479437"><path d="M 75.53125 126.660156 L 146.808594 75.480469 L 195.367188 143.101562 L 124.089844 194.28125 Z M 75.53125 126.660156 " clip-rule="nonzero"/></clipPath><clipPath id="6c470ada56"><path d="M 93 130 L 95 130 L 95 142 L 93 142 Z M 93 130 " clip-rule="nonzero"/></clipPath><clipPath id="6616f064d1"><path d="M 75.53125 126.660156 L 146.808594 75.480469 L 195.367188 143.101562 L 124.089844 194.28125 Z M 75.53125 126.660156 " clip-rule="nonzero"/></clipPath><clipPath id="5d6c6db6df"><path d="M 75.53125 126.660156 L 146.808594 75.480469 L 195.367188 143.101562 L 124.089844 194.28125 Z M 75.53125 126.660156 " clip-rule="nonzero"/></clipPath><clipPath id="b56335c210"><path d="M 95 129 L 101 129 L 101 141 L 95 141 Z M 95 129 " clip-rule="nonzero"/></clipPath><clipPath id="f2d9051424"><path d="M 75.53125 126.660156 L 146.808594 75.480469 L 195.367188 143.101562 L 124.089844 194.28125 Z M 75.53125 126.660156 " clip-rule="nonzero"/></clipPath><clipPath id="3b9231b7e3"><path d="M 75.53125 126.660156 L 146.808594 75.480469 L 195.367188 143.101562 L 124.089844 194.28125 Z M 75.53125 126.660156 " clip-rule="nonzero"/></clipPath><clipPath id="60a37ad5ed"><path d="M 103 128 L 112 128 L 112 140 L 103 140 Z M 103 128 " clip-rule="nonzero"/></clipPath><clipPath id="b779402d74"><path d="M 75.53125 126.660156 L 146.808594 75.480469 L 195.367188 143.101562 L 124.089844 194.28125 Z M 75.53125 126.660156 " clip-rule="nonzero"/></clipPath><clipPath id="fe0554e3bc"><path d="M 75.53125 126.660156 L 146.808594 75.480469 L 195.367188 143.101562 L 124.089844 194.28125 Z M 75.53125 126.660156 " clip-rule="nonzero"/></clipPath><clipPath id="8a1f050cfc"><path d="M 116 128 L 127 128 L 127 140 L 116 140 Z M 116 128 " clip-rule="nonzero"/></clipPath><clipPath id="5b66245cff"><path d="M 75.53125 126.660156 L 146.808594 75.480469 L 195.367188 143.101562 L 124.089844 194.28125 Z M 75.53125 126.660156 " clip-rule="nonzero"/></clipPath><clipPath id="919040e232"><path d="M 75.53125 126.660156 L 146.808594 75.480469 L 195.367188 143.101562 L 124.089844 194.28125 Z M 75.53125 126.660156 " clip-rule="nonzero"/></clipPath><clipPath id="e9352cd383"><path d="M 131 128 L 143 128 L 143 140 L 131 140 Z M 131 128 " clip-rule="nonzero"/></clipPath><clipPath id="95b62a487f"><path d="M 75.53125 126.660156 L 146.808594 75.480469 L 195.367188 143.101562 L 124.089844 194.28125 Z M 75.53125 126.660156 " clip-rule="nonzero"/></clipPath><clipPath id="0b92bff3c3"><path d="M 75.53125 126.660156 L 146.808594 75.480469 L 195.367188 143.101562 L 124.089844 194.28125 Z M 75.53125 126.660156 " clip-rule="nonzero"/></clipPath><clipPath id="edea93e677"><path d="M 94 143 L 100 143 L 100 155 L 94 155 Z M 94 143 " clip-rule="nonzero"/></clipPath><clipPath id="ba7306c161"><path d="M 75.53125 126.660156 L 146.808594 75.480469 L 195.367188 143.101562 L 124.089844 194.28125 Z M 75.53125 126.660156 " clip-rule="nonzero"/></clipPath><clipPath id="6f99b70dbb"><path d="M 75.53125 126.660156 L 146.808594 75.480469 L 195.367188 143.101562 L 124.089844 194.28125 Z M 75.53125 126.660156 " clip-rule="nonzero"/></clipPath><clipPath id="c260ee03a7"><path d="M 100 143 L 108 143 L 108 154 L 100 154 Z M 100 143 " clip-rule="nonzero"/></clipPath><clipPath id="bcdd92eff8"><path d="M 75.53125 126.660156 L 146.808594 75.480469 L 195.367188 143.101562 L 124.089844 194.28125 Z M 75.53125 126.660156 " clip-rule="nonzero"/></clipPath><clipPath id="1f63b7f70f"><path d="M 75.53125 126.660156 L 146.808594 75.480469 L 195.367188 143.101562 L 124.089844 194.28125 Z M 75.53125 126.660156 " clip-rule="nonzero"/></clipPath><clipPath id="7cd67a5ccc"><path d="M 110 142 L 120 142 L 120 153 L 110 153 Z M 110 142 " clip-rule="nonzero"/></clipPath><clipPath id="ba699a41a6"><path d="M 75.53125 126.660156 L 146.808594 75.480469 L 195.367188 143.101562 L 124.089844 194.28125 Z M 75.53125 126.660156 " clip-rule="nonzero"/></clipPath><clipPath id="fb0410e036"><path d="M 75.53125 126.660156 L 146.808594 75.480469 L 195.367188 143.101562 L 124.089844 194.28125 Z M 75.53125 126.660156 " clip-rule="nonzero"/></clipPath><clipPath id="4e60f81dc9"><path d="M 124 142 L 135 142 L 135 153 L 124 153 Z M 124 142 " clip-rule="nonzero"/></clipPath><clipPath id="58c3712245"><path d="M 75.53125 126.660156 L 146.808594 75.480469 L 195.367188 143.101562 L 124.089844 194.28125 Z M 75.53125 126.660156 " clip-rule="nonzero"/></clipPath><clipPath id="235334529b"><path d="M 75.53125 126.660156 L 146.808594 75.480469 L 195.367188 143.101562 L 124.089844 194.28125 Z M 75.53125 126.660156 " clip-rule="nonzero"/></clipPath><clipPath id="96b6de9847"><path d="M 98 156 L 105 156 L 105 166 L 98 166 Z M 98 156 " clip-rule="nonzero"/></clipPath><clipPath id="ada76bfe01"><path d="M 75.53125 126.660156 L 146.808594 75.480469 L 195.367188 143.101562 L 124.089844 194.28125 Z M 75.53125 126.660156 " clip-rule="nonzero"/></clipPath><clipPath id="9c66195b05"><path d="M 75.53125 126.660156 L 146.808594 75.480469 L 195.367188 143.101562 L 124.089844 194.28125 Z M 75.53125 126.660156 " clip-rule="nonzero"/></clipPath><clipPath id="2e8721c317"><path d="M 101 155 L 108 155 L 108 165 L 101 165 Z M 101 155 " clip-rule="nonzero"/></clipPath><clipPath id="25506355b8"><path d="M 75.53125 126.660156 L 146.808594 75.480469 L 195.367188 143.101562 L 124.089844 194.28125 Z M 75.53125 126.660156 " clip-rule="nonzero"/></clipPath><clipPath id="26dfa2493b"><path d="M 75.53125 126.660156 L 146.808594 75.480469 L 195.367188 143.101562 L 124.089844 194.28125 Z M 75.53125 126.660156 " clip-rule="nonzero"/></clipPath><clipPath id="07b03b1a73"><path d="M 108 154 L 117 154 L 117 164 L 108 164 Z M 108 154 " clip-rule="nonzero"/></clipPath><clipPath id="015aede3be"><path d="M 75.53125 126.660156 L 146.808594 75.480469 L 195.367188 143.101562 L 124.089844 194.28125 Z M 75.53125 126.660156 " clip-rule="nonzero"/></clipPath><clipPath id="0e23294119"><path d="M 75.53125 126.660156 L 146.808594 75.480469 L 195.367188 143.101562 L 124.089844 194.28125 Z M 75.53125 126.660156 " clip-rule="nonzero"/></clipPath><clipPath id="25f92dfc42"><path d="M 106 165 L 114 165 L 114 173 L 106 173 Z M 106 165 " clip-rule="nonzero"/></clipPath><clipPath id="1455697794"><path d="M 75.53125 126.660156 L 146.808594 75.480469 L 195.367188 143.101562 L 124.089844 194.28125 Z M 75.53125 126.660156 " clip-rule="nonzero"/></clipPath><clipPath id="676b85c3f7"><path d="M 75.53125 126.660156 L 146.808594 75.480469 L 195.367188 143.101562 L 124.089844 194.28125 Z M 75.53125 126.660156 " clip-rule="nonzero"/></clipPath><clipPath id="8a914e1b5d"><path d="M 110 165 L 119 165 L 119 173 L 110 173 Z M 110 165 " clip-rule="nonzero"/></clipPath><clipPath id="d05856c836"><path d="M 75.53125 126.660156 L 146.808594 75.480469 L 195.367188 143.101562 L 124.089844 194.28125 Z M 75.53125 126.660156 " clip-rule="nonzero"/></clipPath><clipPath id="9ecea3f375"><path d="M 75.53125 126.660156 L 146.808594 75.480469 L 195.367188 143.101562 L 124.089844 194.28125 Z M 75.53125 126.660156 " clip-rule="nonzero"/></clipPath><clipPath id="6c39a6b387"><path d="M 118 164 L 126 164 L 126 173 L 118 173 Z M 118 164 " clip-rule="nonzero"/></clipPath><clipPath id="975d45abb7"><path d="M 75.53125 126.660156 L 146.808594 75.480469 L 195.367188 143.101562 L 124.089844 194.28125 Z M 75.53125 126.660156 " clip-rule="nonzero"/></clipPath><clipPath id="3c11c0ccaa"><path d="M 75.53125 126.660156 L 146.808594 75.480469 L 195.367188 143.101562 L 124.089844 194.28125 Z M 75.53125 126.660156 " clip-rule="nonzero"/></clipPath><clipPath id="1a2a639740"><path d="M 127 164 L 135 164 L 135 173 L 127 173 Z M 127 164 " clip-rule="nonzero"/></clipPath><clipPath id="26af1600cf"><path d="M 75.53125 126.660156 L 146.808594 75.480469 L 195.367188 143.101562 L 124.089844 194.28125 Z M 75.53125 126.660156 " clip-rule="nonzero"/></clipPath><clipPath id="81500406bc"><path d="M 75.53125 126.660156 L 146.808594 75.480469 L 195.367188 143.101562 L 124.089844 194.28125 Z M 75.53125 126.660156 " clip-rule="nonzero"/></clipPath><clipPath id="50391a4f19"><path d="M 116 173 L 126 173 L 126 179 L 116 179 Z M 116 173 " clip-rule="nonzero"/></clipPath><clipPath id="4b18431283"><path d="M 75.53125 126.660156 L 146.808594 75.480469 L 195.367188 143.101562 L 124.089844 194.28125 Z M 75.53125 126.660156 " clip-rule="nonzero"/></clipPath><clipPath id="4c90adb326"><path d="M 75.53125 126.660156 L 146.808594 75.480469 L 195.367188 143.101562 L 124.089844 194.28125 Z M 75.53125 126.660156 " clip-rule="nonzero"/></clipPath><clipPath id="934946bfa8"><path d="M 121 173 L 129 173 L 129 178 L 121 178 Z M 121 173 " clip-rule="nonzero"/></clipPath><clipPath id="289afd6df2"><path d="M 75.53125 126.660156 L 146.808594 75.480469 L 195.367188 143.101562 L 124.089844 194.28125 Z M 75.53125 126.660156 " clip-rule="nonzero"/></clipPath><clipPath id="d6ec32e54b"><path d="M 75.53125 126.660156 L 146.808594 75.480469 L 195.367188 143.101562 L 124.089844 194.28125 Z M 75.53125 126.660156 " clip-rule="nonzero"/></clipPath><clipPath id="7e025b44c8"><path d="M 127 173 L 133 173 L 133 178 L 127 178 Z M 127 173 " clip-rule="nonzero"/></clipPath><clipPath id="2b53626368"><path d="M 75.53125 126.660156 L 146.808594 75.480469 L 195.367188 143.101562 L 124.089844 194.28125 Z M 75.53125 126.660156 " clip-rule="nonzero"/></clipPath><clipPath id="c9f51c5127"><path d="M 75.53125 126.660156 L 146.808594 75.480469 L 195.367188 143.101562 L 124.089844 194.28125 Z M 75.53125 126.660156 " clip-rule="nonzero"/></clipPath><clipPath id="6a733c92d0"><path d="M 134 173 L 139 173 L 139 178 L 134 178 Z M 134 173 " clip-rule="nonzero"/></clipPath><clipPath id="9d87bfdcce"><path d="M 75.53125 126.660156 L 146.808594 75.480469 L 195.367188 143.101562 L 124.089844 194.28125 Z M 75.53125 126.660156 " clip-rule="nonzero"/></clipPath><clipPath id="8d736f7004"><path d="M 75.53125 126.660156 L 146.808594 75.480469 L 195.367188 143.101562 L 124.089844 194.28125 Z M 75.53125 126.660156 " clip-rule="nonzero"/></clipPath><clipPath id="1491b0d7b1"><path d="M 139 173 L 145 173 L 145 179 L 139 179 Z M 139 173 " clip-rule="nonzero"/></clipPath><clipPath id="6a8d0509e0"><path d="M 75.53125 126.660156 L 146.808594 75.480469 L 195.367188 143.101562 L 124.089844 194.28125 Z M 75.53125 126.660156 " clip-rule="nonzero"/></clipPath><clipPath id="2658deefb2"><path d="M 75.53125 126.660156 L 146.808594 75.480469 L 195.367188 143.101562 L 124.089844 194.28125 Z M 75.53125 126.660156 " clip-rule="nonzero"/></clipPath><clipPath id="75afb4dd19"><path d="M 143 173 L 152 173 L 152 179 L 143 179 Z M 143 173 " clip-rule="nonzero"/></clipPath><clipPath id="0bc1a67289"><path d="M 75.53125 126.660156 L 146.808594 75.480469 L 195.367188 143.101562 L 124.089844 194.28125 Z M 75.53125 126.660156 " clip-rule="nonzero"/></clipPath><clipPath id="f8ea53aad6"><path d="M 75.53125 126.660156 L 146.808594 75.480469 L 195.367188 143.101562 L 124.089844 194.28125 Z M 75.53125 126.660156 " clip-rule="nonzero"/></clipPath></defs><g clip-path="url(#484d2cce71)"><g clip-path="url(#eccf12bf05)"><g clip-path="url(#f2e033913d)"><path fill="#ffffff" d="M 123.042969 95.855469 C 118.519531 97.890625 118.25 98.015625 117.972656 97.886719 C 118.292969 96.949219 124.65625 94.558594 126.957031 94.207031 C 126.867188 94.285156 126.867188 94.285156 126.398438 94.460938 C 125.472656 94.808594 124.546875 95.179688 123.042969 95.855469 " fill-opacity="1" fill-rule="nonzero"/></g></g></g><g clip-path="url(#162dbd5c3a)"><g clip-path="url(#faab9b6032)"><g clip-path="url(#b09dc39f34)"><path fill="#ffffff" d="M 127.574219 95.640625 C 124.039062 97.78125 122.164062 97.898438 122.363281 97.242188 C 122.714844 96.085938 127.574219 94.195312 129.585938 94.03125 C 129.632812 94.03125 129.699219 94.035156 129.746094 94.046875 C 129.757812 94.066406 129.769531 94.089844 129.777344 94.109375 C 129.59375 94.414062 127.65625 95.589844 127.574219 95.640625 " fill-opacity="1" fill-rule="nonzero"/></g></g></g><g clip-path="url(#eda3be9f67)"><g clip-path="url(#97bb039a1a)"><g clip-path="url(#49fad5001f)"><path fill="#ffffff" d="M 133.539062 95.570312 C 132.015625 97.546875 128.828125 97.898438 128.675781 96.796875 C 128.507812 95.589844 131.695312 94.023438 133.429688 93.949219 C 134.738281 93.992188 133.585938 95.507812 133.539062 95.570312 " fill-opacity="1" fill-rule="nonzero"/></g></g></g><g clip-path="url(#add9fa632a)"><g clip-path="url(#9c16118969)"><g clip-path="url(#40dffdf30e)"><path fill="#ffffff" d="M 139.828125 95.65625 C 140.136719 97.265625 137.621094 97.996094 136.203125 97.066406 C 134.714844 96.089844 135.796875 94.328125 137.25 94.015625 C 137.429688 93.976562 137.582031 93.972656 137.699219 93.96875 C 138.828125 94.035156 139.679688 94.894531 139.828125 95.65625 " fill-opacity="1" fill-rule="nonzero"/></g></g></g><g clip-path="url(#7ef8a06ba0)"><g clip-path="url(#5c72902b96)"><g clip-path="url(#c16842e231)"><path fill="#ffffff" d="M 145.800781 95.875 C 146.890625 96.886719 146.546875 97.632812 145.539062 97.695312 C 143.117188 97.84375 140.625 94.96875 141.421875 94.210938 C 141.546875 94.09375 141.753906 94.089844 141.90625 94.089844 C 142.925781 94.171875 144.777344 94.925781 145.800781 95.875 " fill-opacity="1" fill-rule="nonzero"/></g></g></g><g clip-path="url(#28dc1561ad)"><g clip-path="url(#34f93e11ab)"><g clip-path="url(#612ff72f92)"><path fill="#ffffff" d="M 150.820312 96.210938 C 152.484375 97.15625 152.921875 97.902344 152.371094 98.046875 C 152 98.144531 150.992188 97.960938 149.394531 97.105469 C 148.046875 96.382812 145.394531 94.574219 145.410156 94.328125 C 145.457031 94.292969 145.480469 94.292969 145.605469 94.292969 C 146.570312 94.402344 149.019531 95.183594 150.820312 96.210938 " fill-opacity="1" fill-rule="nonzero"/></g></g></g><g clip-path="url(#5763340c24)"><g clip-path="url(#bc0256807b)"><g clip-path="url(#a9182b9343)"><path fill="#ffffff" d="M 154.15625 96.625 C 155.671875 97.332031 157.261719 98.265625 157.1875 98.542969 C 157.105469 98.574219 156.929688 98.636719 155.582031 98.03125 C 155.519531 98.003906 148.390625 94.632812 148.304688 94.574219 L 148.355469 94.566406 C 148.859375 94.660156 151.484375 95.378906 154.15625 96.625 " fill-opacity="1" fill-rule="nonzero"/></g></g></g><g clip-path="url(#3b42b761d0)"><g clip-path="url(#e41e1794e3)"><g clip-path="url(#2361cf857c)"><path fill="#ffffff" d="M 111.015625 102.738281 C 108.234375 105.148438 106.675781 106.269531 106.386719 106.070312 C 106.269531 105.039062 112.542969 100.089844 114.292969 99.570312 L 114.355469 99.566406 C 114.371094 99.683594 114.386719 99.820312 111.015625 102.738281 " fill-opacity="1" fill-rule="nonzero"/></g></g></g><g clip-path="url(#35cf2062b2)"><g clip-path="url(#4938b87dbb)"><g clip-path="url(#847526ab1a)"><path fill="#ffffff" d="M 116.8125 102.289062 C 114.070312 105.113281 110.96875 106.320312 110.9375 105.007812 C 110.890625 103.230469 115.898438 99.441406 118.183594 99.140625 C 119.832031 99.15625 116.839844 102.257812 116.8125 102.289062 " fill-opacity="1" fill-rule="nonzero"/></g></g></g><g clip-path="url(#c205d4338a)"><g clip-path="url(#01cd47e5b6)"><g clip-path="url(#7c46c29975)"><path fill="#ffffff" d="M 125.71875 102.046875 C 123.789062 105.113281 119.324219 106.132812 118.757812 104.191406 C 118.210938 102.304688 121.925781 99.074219 124.878906 98.871094 C 127.167969 98.9375 126.261719 101.183594 125.71875 102.046875 " fill-opacity="1" fill-rule="nonzero"/></g></g></g><g clip-path="url(#0c7a2cae56)"><g clip-path="url(#154fc109c6)"><g clip-path="url(#2d6d935e88)"><path fill="#ffffff" d="M 135.9375 102.0625 C 135.285156 105.328125 130.390625 106.050781 129.070312 103.796875 C 127.9375 101.859375 130.40625 98.921875 133.265625 98.808594 C 135.535156 98.925781 136.195312 100.78125 135.9375 102.0625 " fill-opacity="1" fill-rule="nonzero"/></g></g></g><g clip-path="url(#f63d73915e)"><g clip-path="url(#ebd75c30c3)"><g clip-path="url(#29c0b7f191)"><path fill="#ffffff" d="M 146.15625 102.316406 C 146.796875 104.996094 143.429688 106.085938 141.019531 104.617188 C 138.363281 102.996094 138.792969 99.675781 141.105469 99.054688 C 141.429688 98.964844 141.722656 98.960938 141.957031 98.957031 C 144.316406 99.132812 145.855469 101.0625 146.15625 102.316406 " fill-opacity="1" fill-rule="nonzero"/></g></g></g><g clip-path="url(#f23bda9bcd)"><g clip-path="url(#b04fcdbcb6)"><g clip-path="url(#7d51c2b90b)"><path fill="#ffffff" d="M 155.332031 102.777344 C 156.589844 104.765625 155.59375 106.171875 153.316406 105.617188 C 149.886719 104.78125 147.460938 100.425781 149.207031 99.449219 C 149.496094 99.289062 149.777344 99.289062 150.070312 99.289062 C 152.089844 99.496094 154.371094 101.261719 155.332031 102.777344 " fill-opacity="1" fill-rule="nonzero"/></g></g></g><g clip-path="url(#9f931a82c4)"><g clip-path="url(#b60e07d973)"><g clip-path="url(#5b69af042a)"><path fill="#ffffff" d="M 162.410156 103.410156 C 164.03125 105.144531 164.253906 106.503906 162.894531 106.375 C 160.132812 106.117188 155.242188 100.566406 156.289062 99.84375 C 156.402344 99.765625 156.585938 99.769531 156.730469 99.773438 C 158.332031 100.03125 160.960938 101.859375 162.410156 103.410156 " fill-opacity="1" fill-rule="nonzero"/></g></g></g><g clip-path="url(#b5f058aff3)"><g clip-path="url(#3172565d85)"><g clip-path="url(#d6e9df14f6)"><path fill="#ffffff" d="M 165.992188 104.105469 C 167.265625 105.273438 168.605469 106.714844 168.53125 107.125 C 167.71875 107.605469 160.785156 100.476562 160.765625 100.375 C 160.792969 100.371094 160.832031 100.363281 160.863281 100.355469 C 161.542969 100.582031 163.824219 102.121094 165.992188 104.105469 " fill-opacity="1" fill-rule="nonzero"/></g></g></g><g clip-path="url(#e4e09e49fd)"><g clip-path="url(#a7f70447a1)"><g clip-path="url(#ecc46f6a9b)"><path fill="#ffffff" d="M 101.324219 112.257812 C 98.679688 116.210938 98.332031 116.492188 98.199219 116.597656 L 98.160156 116.5625 C 98.195312 116.441406 98.234375 116.328125 98.460938 115.914062 L 98.46875 115.894531 C 100.769531 112.023438 100.769531 112.023438 102.144531 110.21875 L 103.601562 108.410156 C 103.894531 108.070312 103.96875 108.007812 104.054688 107.9375 L 104.085938 107.964844 C 104.019531 108.121094 103.914062 108.378906 101.324219 112.257812 " fill-opacity="1" fill-rule="nonzero"/></g></g></g><g clip-path="url(#097c32c7b0)"><g clip-path="url(#98eee23301)"><g clip-path="url(#12c11d0371)"><path fill="#ffffff" d="M 106.558594 111.574219 C 104.578125 114.765625 101.84375 116.785156 101.421875 115.371094 C 100.863281 113.484375 105.113281 107.730469 107.40625 107.265625 C 108.742188 107.261719 107.59375 109.90625 106.558594 111.574219 " fill-opacity="1" fill-rule="nonzero"/></g></g></g><g clip-path="url(#bc8791367f)"><g clip-path="url(#7e7ee4445f)"><g clip-path="url(#a5ccc0c824)"><path fill="#ffffff" d="M 116.109375 111.117188 C 114.332031 114.742188 109.601562 116.609375 108.773438 114.015625 C 108.027344 111.683594 111.371094 107.109375 114.765625 106.773438 C 117.140625 106.824219 116.980469 109.34375 116.109375 111.117188 " fill-opacity="1" fill-rule="nonzero"/></g></g></g><g clip-path="url(#f1103d91b4)"><g clip-path="url(#3c70ba1088)"><g clip-path="url(#07512fff8d)"><path fill="#ffffff" d="M 128.691406 110.972656 C 127.617188 114.789062 121.902344 116.390625 120.199219 113.347656 C 118.828125 110.910156 121.5 106.757812 125.535156 106.539062 C 128.707031 106.671875 129.152344 109.328125 128.691406 110.972656 " fill-opacity="1" fill-rule="nonzero"/></g></g></g><g clip-path="url(#b6636843da)"><g clip-path="url(#73d30c6698)"><g clip-path="url(#ba007537bc)"><path fill="#ffffff" d="M 141.957031 111.148438 C 141.792969 114.84375 136.738281 116.433594 134 113.65625 C 131.59375 111.210938 133.21875 106.730469 137.5 106.601562 C 140.703125 106.808594 142.035156 109.386719 141.957031 111.148438 " fill-opacity="1" fill-rule="nonzero"/></g></g></g><g clip-path="url(#bb255ee6ec)"><g clip-path="url(#5291eeb645)"><g clip-path="url(#f5beaa97f8)"><path fill="#ffffff" d="M 154.550781 111.613281 C 155.179688 114.910156 151.65625 116.609375 148.472656 114.546875 C 144.851562 112.203125 145.402344 107.519531 148.515625 106.984375 C 148.742188 106.945312 149.046875 106.941406 149.277344 106.9375 C 152.355469 107.214844 154.214844 109.839844 154.550781 111.613281 " fill-opacity="1" fill-rule="nonzero"/></g></g></g><g clip-path="url(#928dcf4228)"><g clip-path="url(#98ee18a8ca)"><g clip-path="url(#a6162be8f0)"><path fill="#ffffff" d="M 165.140625 112.320312 C 166.234375 115.085938 164.699219 116.847656 162.09375 115.808594 C 158.121094 114.222656 156.363281 108.515625 158.777344 107.613281 C 159.082031 107.503906 159.398438 107.503906 159.648438 107.507812 C 162.226562 107.847656 164.449219 110.578125 165.140625 112.320312 " fill-opacity="1" fill-rule="nonzero"/></g></g></g><g clip-path="url(#d4fadba997)"><g clip-path="url(#e4c4b54300)"><g clip-path="url(#786b8974fc)"><path fill="#ffffff" d="M 172.175781 113.199219 C 173.527344 115.65625 173.46875 117.363281 172.050781 116.929688 C 169.417969 116.121094 165.214844 108.9375 167 108.292969 C 167.101562 108.257812 167.246094 108.265625 167.351562 108.269531 C 169.023438 108.652344 171.179688 111.382812 172.175781 113.199219 " fill-opacity="1" fill-rule="nonzero"/></g></g></g><g clip-path="url(#281658b5cc)"><g clip-path="url(#284d687ba0)"><g clip-path="url(#975eed412c)"><path fill="#ffffff" d="M 176.222656 117.503906 C 176.332031 117.742188 176.355469 117.820312 176.375 117.894531 L 176.335938 117.929688 C 175.730469 117.386719 171.023438 109.769531 170.769531 109.101562 L 170.796875 109.074219 C 170.890625 109.152344 170.929688 109.195312 171.164062 109.480469 L 172.609375 111.410156 C 175.066406 115.175781 175.066406 115.175781 176.074219 117.203125 L 176.140625 117.339844 C 176.164062 117.386719 176.199219 117.453125 176.222656 117.503906 " fill-opacity="1" fill-rule="nonzero"/></g></g></g><g clip-path="url(#23534d5630)"><g clip-path="url(#61304f2a6c)"><g clip-path="url(#979a2836ee)"><path fill="#ffffff" d="M 98.632812 122.585938 C 97.46875 126.085938 95.78125 128.441406 95.292969 127.25 C 94.601562 125.578125 97.085938 118.089844 98.964844 117.425781 C 99.984375 117.398438 99.304688 120.578125 98.632812 122.585938 " fill-opacity="1" fill-rule="nonzero"/></g></g></g><g clip-path="url(#0ca427ddf2)"><g clip-path="url(#a71cd8ebfd)"><g clip-path="url(#a3ed7c3e5b)"><path fill="#ffffff" d="M 107.058594 121.929688 C 105.789062 126.046875 102.175781 128.285156 100.921875 125.730469 C 99.628906 123.109375 102.113281 117.191406 105.363281 116.722656 C 107.628906 116.753906 107.71875 119.785156 107.058594 121.929688 " fill-opacity="1" fill-rule="nonzero"/></g></g></g><g clip-path="url(#ed10e8a6a9)"><g clip-path="url(#410b07e533)"><g clip-path="url(#98d0f4ada0)"><path fill="#ffffff" d="M 120.007812 121.578125 C 118.917969 126.105469 113.148438 128.011719 111.183594 124.492188 C 109.53125 121.523438 112.023438 116.601562 116.371094 116.277344 C 119.917969 116.390625 120.484375 119.585938 120.007812 121.578125 " fill-opacity="1" fill-rule="nonzero"/></g></g></g><g clip-path="url(#eadc424868)"><g clip-path="url(#e9312dd916)"><g clip-path="url(#643f94642f)"><path fill="#ffffff" d="M 134.855469 121.597656 C 134.21875 126.179688 128.179688 127.910156 125.488281 124.28125 C 123.296875 121.328125 125.460938 116.378906 130.160156 116.175781 C 133.894531 116.378906 135.152344 119.46875 134.855469 121.597656 " fill-opacity="1" fill-rule="nonzero"/></g></g></g><g clip-path="url(#8aff29ee14)"><g clip-path="url(#77899e7675)"><g clip-path="url(#fd22479437)"><path fill="#ffffff" d="M 163.042969 122.636719 C 163.390625 126.75 159.34375 128.550781 156.171875 125.691406 C 152.800781 122.660156 153.542969 117.195312 157.359375 116.964844 C 157.488281 116.957031 157.660156 116.964844 157.789062 116.964844 C 161.113281 117.332031 162.863281 120.503906 163.042969 122.636719 " fill-opacity="1" fill-rule="nonzero"/></g></g></g><g clip-path="url(#6c470ada56)"><g clip-path="url(#6616f064d1)"><g clip-path="url(#5d6c6db6df)"><path fill="#ffffff" d="M 94.324219 135.90625 C 94.269531 137.859375 94.066406 141.175781 93.636719 141.214844 C 93.5 141.085938 93.339844 140.679688 93.242188 138.667969 L 93.207031 135.925781 L 93.390625 132.59375 C 93.605469 130.410156 93.808594 130.191406 93.894531 130.097656 L 93.953125 130.09375 C 94.359375 130.476562 94.378906 133.925781 94.324219 135.90625 " fill-opacity="1" fill-rule="nonzero"/></g></g></g><g clip-path="url(#b56335c210)"><g clip-path="url(#f2d9051424)"><g clip-path="url(#3b9231b7e3)"><path fill="#ffffff" d="M 100.511719 135.101562 C 100.269531 139.039062 98.375 141.503906 96.890625 139.808594 C 94.90625 137.546875 95.4375 129.859375 98.226562 129.234375 C 100.050781 129.242188 100.660156 132.671875 100.511719 135.101562 " fill-opacity="1" fill-rule="nonzero"/></g></g></g><g clip-path="url(#60a37ad5ed)"><g clip-path="url(#b779402d74)"><g clip-path="url(#fe0554e3bc)"><path fill="#ffffff" d="M 111.808594 134.5625 C 111.367188 139.15625 107.027344 141.378906 104.664062 138.21875 C 102.332031 135.105469 103.722656 129.027344 107.734375 128.597656 C 110.929688 128.679688 112.039062 132.136719 111.808594 134.5625 " fill-opacity="1" fill-rule="nonzero"/></g></g></g><g clip-path="url(#8a1f050cfc)"><g clip-path="url(#5b66245cff)"><g clip-path="url(#919040e232)"><path fill="#ffffff" d="M 126.683594 134.386719 C 126.140625 139.257812 120.359375 141.164062 117.449219 137.429688 C 114.902344 134.15625 116.746094 128.585938 121.65625 128.289062 C 125.789062 128.480469 126.933594 132.132812 126.683594 134.386719 " fill-opacity="1" fill-rule="nonzero"/></g></g></g><g clip-path="url(#e9352cd383)"><g clip-path="url(#95b62a487f)"><g clip-path="url(#0b92bff3c3)"><path fill="#ffffff" d="M 142.363281 134.597656 C 141.792969 139.492188 135.796875 141.257812 132.789062 137.414062 C 130.171875 134.074219 132.074219 128.546875 137.117188 128.375 C 141.433594 128.671875 142.625 132.347656 142.363281 134.597656 " fill-opacity="1" fill-rule="nonzero"/></g></g></g><g clip-path="url(#edea93e677)"><g clip-path="url(#ba7306c161)"><g clip-path="url(#6f99b70dbb)"><path fill="#ffffff" d="M 98.707031 149.265625 C 99.429688 152.089844 99.390625 154.679688 98.183594 153.882812 C 96.335938 152.664062 93.765625 144.507812 95.605469 143.761719 C 96.769531 143.746094 98.121094 146.96875 98.707031 149.265625 " fill-opacity="1" fill-rule="nonzero"/></g></g></g><g clip-path="url(#c260ee03a7)"><g clip-path="url(#bcdd92eff8)"><g clip-path="url(#1f63b7f70f)"><path fill="#ffffff" d="M 107.007812 148.621094 C 107.558594 152.1875 105.710938 154.351562 103.421875 152.828125 C 100.113281 150.632812 99.230469 143.785156 102.164062 143.058594 C 102.257812 143.035156 102.390625 143.023438 102.488281 143.007812 C 105.019531 143.050781 106.65625 146.316406 107.007812 148.621094 " fill-opacity="1" fill-rule="nonzero"/></g></g></g><g clip-path="url(#7cd67a5ccc)"><g clip-path="url(#ba699a41a6)"><g clip-path="url(#fb0410e036)"><path fill="#ffffff" d="M 119.769531 148.273438 C 119.878906 152.5 115.65625 154.375 112.488281 151.507812 C 109.519531 148.824219 109.453125 142.914062 114.320312 142.527344 C 117.980469 142.65625 119.710938 145.964844 119.769531 148.273438 " fill-opacity="1" fill-rule="nonzero"/></g></g></g><g clip-path="url(#4e60f81dc9)"><g clip-path="url(#58c3712245)"><g clip-path="url(#235334529b)"><path fill="#ffffff" d="M 134.40625 148.296875 C 133.929688 153.03125 128.246094 154.457031 125.328125 150.574219 C 122.933594 147.390625 124.507812 142.636719 129.148438 142.417969 C 133.15625 142.648438 134.632812 145.996094 134.40625 148.296875 " fill-opacity="1" fill-rule="nonzero"/></g></g></g><g clip-path="url(#96b6de9847)"><g clip-path="url(#ada76bfe01)"><g clip-path="url(#9c66195b05)"><path fill="#ffffff" d="M 101.867188 161.015625 C 103.425781 163.441406 104.152344 164.785156 104.015625 165.003906 C 103.105469 165.078125 97.707031 157.011719 98.179688 156.285156 C 98.761719 156.238281 101.351562 160.21875 101.867188 161.015625 " fill-opacity="1" fill-rule="nonzero"/></g></g></g><g clip-path="url(#2e8721c317)"><g clip-path="url(#25506355b8)"><g clip-path="url(#26dfa2493b)"><path fill="#ffffff" d="M 106.890625 160.363281 C 108.019531 162.605469 108.316406 164.695312 106.851562 164.3125 C 104.09375 163.589844 100.066406 156.878906 101.65625 155.660156 C 101.753906 155.585938 101.914062 155.542969 102.03125 155.515625 C 103.605469 155.519531 105.710938 158.015625 106.890625 160.363281 " fill-opacity="1" fill-rule="nonzero"/></g></g></g><g clip-path="url(#07b03b1a73)"><g clip-path="url(#015aede3be)"><g clip-path="url(#0e23294119)"><path fill="#ffffff" d="M 116.066406 159.925781 C 116.917969 162.855469 115.328125 165.007812 112.324219 163.25 C 108.449219 160.976562 107.011719 155.574219 110.128906 154.992188 C 110.234375 154.96875 110.382812 154.960938 110.492188 154.949219 C 113.359375 155.023438 115.476562 157.902344 116.066406 159.925781 " fill-opacity="1" fill-rule="nonzero"/></g></g></g><g clip-path="url(#25f92dfc42)"><g clip-path="url(#1455697794)"><g clip-path="url(#676b85c3f7)"><path fill="#ffffff" d="M 111.355469 169.734375 C 113.367188 171.664062 114.214844 172.683594 113.878906 172.765625 C 112.496094 173.109375 105.230469 166.726562 106.101562 165.941406 C 106.121094 165.917969 106.164062 165.910156 106.191406 165.898438 C 107.226562 165.878906 110.148438 168.574219 111.355469 169.734375 " fill-opacity="1" fill-rule="nonzero"/></g></g></g><g clip-path="url(#8a914e1b5d)"><g clip-path="url(#d05856c836)"><g clip-path="url(#9ecea3f375)"><path fill="#ffffff" d="M 116.808594 169.308594 C 117.707031 170.496094 118.847656 172.476562 117.421875 172.355469 C 114.867188 172.136719 109.273438 167.046875 110.683594 165.570312 C 110.835938 165.410156 111.058594 165.375 111.238281 165.34375 C 113.027344 165.375 115.378906 167.417969 116.808594 169.308594 " fill-opacity="1" fill-rule="nonzero"/></g></g></g><g clip-path="url(#6c39a6b387)"><g clip-path="url(#975d45abb7)"><g clip-path="url(#3c11c0ccaa)"><path fill="#ffffff" d="M 125.195312 169.078125 C 126.035156 171.367188 125.003906 172.964844 122.179688 171.601562 C 118.535156 169.839844 116.722656 165.824219 119.242188 165.089844 C 119.4375 165.03125 119.707031 165.007812 119.910156 164.992188 C 122.71875 165.089844 124.609375 167.488281 125.195312 169.078125 " fill-opacity="1" fill-rule="nonzero"/></g></g></g><g clip-path="url(#1a2a639740)"><g clip-path="url(#26af1600cf)"><g clip-path="url(#81500406bc)"><path fill="#ffffff" d="M 134.8125 169.09375 C 134.664062 172.054688 131.449219 173.261719 128.976562 170.34375 C 127.070312 168.101562 127.605469 165.0625 130.78125 164.914062 C 133.425781 165.066406 134.90625 167.160156 134.8125 169.09375 " fill-opacity="1" fill-rule="nonzero"/></g></g></g><g clip-path="url(#50391a4f19)"><g clip-path="url(#4b18431283)"><g clip-path="url(#4c90adb326)"><path fill="#ffffff" d="M 122.625 176.335938 C 125.613281 178.019531 125.613281 178.019531 125.707031 178.117188 C 125.695312 178.132812 125.679688 178.152344 125.664062 178.164062 C 123.457031 178.136719 115.882812 174.296875 116.851562 173.699219 C 116.878906 173.683594 116.921875 173.679688 116.953125 173.671875 C 117.898438 173.679688 120.089844 174.910156 122.625 176.335938 " fill-opacity="1" fill-rule="nonzero"/></g></g></g><g clip-path="url(#934946bfa8)"><g clip-path="url(#289afd6df2)"><g clip-path="url(#d6ec32e54b)"><path fill="#ffffff" d="M 126.828125 176.136719 C 128.917969 177.957031 128.402344 177.984375 128.234375 177.992188 C 126.484375 178.085938 120.203125 174.566406 121.222656 173.511719 C 121.328125 173.398438 121.527344 173.375 121.675781 173.355469 C 123.558594 173.410156 126.097656 175.496094 126.828125 176.136719 " fill-opacity="1" fill-rule="nonzero"/></g></g></g><g clip-path="url(#7e025b44c8)"><g clip-path="url(#2b53626368)"><g clip-path="url(#c9f51c5127)"><path fill="#ffffff" d="M 132.367188 176.070312 C 132.613281 176.6875 133.230469 178.625 130.851562 177.605469 C 128.082031 176.425781 126.429688 174.03125 127.90625 173.339844 C 128.132812 173.234375 128.398438 173.21875 128.589844 173.203125 C 130.433594 173.292969 131.839844 174.753906 132.367188 176.070312 " fill-opacity="1" fill-rule="nonzero"/></g></g></g><g clip-path="url(#6a733c92d0)"><g clip-path="url(#9d87bfdcce)"><g clip-path="url(#8d736f7004)"><path fill="#ffffff" d="M 138.207031 176.148438 C 137.421875 178.234375 135.304688 178.699219 134.292969 176.308594 C 133.691406 174.886719 134.34375 173.320312 136.269531 173.246094 C 138.113281 173.378906 138.703125 174.828125 138.207031 176.148438 " fill-opacity="1" fill-rule="nonzero"/></g></g></g><g clip-path="url(#1491b0d7b1)"><g clip-path="url(#6a8d0509e0)"><g clip-path="url(#2658deefb2)"><path fill="#ffffff" d="M 143.75 176.355469 C 143.109375 176.914062 139.519531 179.324219 139.734375 177.1875 C 139.882812 175.691406 141.554688 173.5 143.828125 173.460938 C 145.527344 173.636719 145.148438 175.125 143.75 176.355469 " fill-opacity="1" fill-rule="nonzero"/></g></g></g><g clip-path="url(#75afb4dd19)"><g clip-path="url(#0bc1a67289)"><g clip-path="url(#f8ea53aad6)"><path fill="#ffffff" d="M 148.410156 176.664062 C 146.574219 177.660156 143.605469 178.632812 143.71875 178.089844 C 143.820312 177.585938 147.988281 173.816406 150.488281 173.828125 C 151.648438 174.007812 150.734375 175.082031 149.832031 175.765625 C 149.433594 176.066406 148.957031 176.367188 148.410156 176.664062 " fill-opacity="1" fill-rule="nonzero"/></g></g></g><g fill="#ffffff" fill-opacity="1"><g transform="translate(149.96592, 143.910786)"><g><path d="M 2.734375 0.09375 C 2.148438 0.09375 1.613281 -0.03125 1.125 -0.28125 C 0.632812 -0.539062 0.234375 -0.898438 -0.078125 -1.359375 L 0.5625 -2.078125 C 1.125 -1.253906 1.851562 -0.84375 2.75 -0.84375 C 4 -0.84375 4.625 -1.582031 4.625 -3.0625 L 4.625 -9.1875 L 0.921875 -9.1875 L 0.921875 -10.109375 L 5.671875 -10.109375 L 5.671875 -3.109375 C 5.671875 -2.046875 5.421875 -1.242188 4.921875 -0.703125 C 4.429688 -0.171875 3.703125 0.09375 2.734375 0.09375 Z M 2.734375 0.09375 "/></g></g></g><g fill="#ffffff" fill-opacity="1"><g transform="translate(160.231137, 143.910786)"><g><path d="M 8.796875 -0.921875 L 8.796875 0 L 1.640625 0 L 1.640625 -10.109375 L 8.578125 -10.109375 L 8.578125 -9.1875 L 2.71875 -9.1875 L 2.71875 -5.59375 L 7.9375 -5.59375 L 7.9375 -4.671875 L 2.71875 -4.671875 L 2.71875 -0.921875 Z M 8.796875 -0.921875 "/></g></g></g><g fill="#ffffff" fill-opacity="1"><g transform="translate(172.921451, 143.910786)"><g><path d="M 8.546875 0 L 6.234375 -3.25 C 5.972656 -3.21875 5.703125 -3.203125 5.421875 -3.203125 L 2.71875 -3.203125 L 2.71875 0 L 1.640625 0 L 1.640625 -10.109375 L 5.421875 -10.109375 C 6.710938 -10.109375 7.722656 -9.800781 8.453125 -9.1875 C 9.191406 -8.570312 9.5625 -7.722656 9.5625 -6.640625 C 9.5625 -5.847656 9.359375 -5.179688 8.953125 -4.640625 C 8.554688 -4.097656 7.988281 -3.707031 7.25 -3.46875 L 9.71875 0 Z M 5.40625 -4.109375 C 6.40625 -4.109375 7.164062 -4.328125 7.6875 -4.765625 C 8.21875 -5.210938 8.484375 -5.835938 8.484375 -6.640625 C 8.484375 -7.460938 8.21875 -8.09375 7.6875 -8.53125 C 7.164062 -8.96875 6.40625 -9.1875 5.40625 -9.1875 L 2.71875 -9.1875 L 2.71875 -4.109375 Z M 5.40625 -4.109375 "/></g></g></g><g fill="#ffffff" fill-opacity="1"><g transform="translate(186.391265, 143.910786)"><g><path d="M 8.796875 -0.921875 L 8.796875 0 L 1.640625 0 L 1.640625 -10.109375 L 8.578125 -10.109375 L 8.578125 -9.1875 L 2.71875 -9.1875 L 2.71875 -5.59375 L 7.9375 -5.59375 L 7.9375 -4.671875 L 2.71875 -4.671875 L 2.71875 -0.921875 Z M 8.796875 -0.921875 "/></g></g></g><g fill="#ffffff" fill-opacity="1"><g transform="translate(199.081578, 143.910786)"><g><path d="M 12.140625 -10.109375 L 12.140625 0 L 11.109375 0 L 11.109375 -8.078125 L 7.140625 -1.28125 L 6.640625 -1.28125 L 2.671875 -8.046875 L 2.671875 0 L 1.640625 0 L 1.640625 -10.109375 L 2.53125 -10.109375 L 6.921875 -2.609375 L 11.265625 -10.109375 Z M 12.140625 -10.109375 "/></g></g></g><g fill="#ffffff" fill-opacity="1"><g transform="translate(215.900324, 143.910786)"><g><path d="M 5.109375 -3.5 L 5.109375 0 L 4.0625 0 L 4.0625 -3.5 L 0.015625 -10.109375 L 1.15625 -10.109375 L 4.625 -4.4375 L 8.078125 -10.109375 L 9.15625 -10.109375 Z M 5.109375 -3.5 "/></g></g></g><g fill="#ffffff" fill-opacity="1"><g transform="translate(145.744862, 164.097649)"><g><path d="M 8.765625 -5.046875 L 9.78125 -5.046875 L 9.78125 -1.203125 C 9.3125 -0.785156 8.753906 -0.460938 8.109375 -0.234375 C 7.460938 -0.015625 6.785156 0.09375 6.078125 0.09375 C 5.066406 0.09375 4.15625 -0.125 3.34375 -0.5625 C 2.539062 -1.007812 1.90625 -1.625 1.4375 -2.40625 C 0.976562 -3.195312 0.75 -4.078125 0.75 -5.046875 C 0.75 -6.023438 0.976562 -6.90625 1.4375 -7.6875 C 1.90625 -8.46875 2.539062 -9.078125 3.34375 -9.515625 C 4.15625 -9.960938 5.070312 -10.1875 6.09375 -10.1875 C 6.863281 -10.1875 7.570312 -10.0625 8.21875 -9.8125 C 8.863281 -9.570312 9.40625 -9.210938 9.84375 -8.734375 L 9.1875 -8.0625 C 8.382812 -8.84375 7.367188 -9.234375 6.140625 -9.234375 C 5.316406 -9.234375 4.578125 -9.050781 3.921875 -8.6875 C 3.265625 -8.332031 2.742188 -7.832031 2.359375 -7.1875 C 1.984375 -6.550781 1.796875 -5.835938 1.796875 -5.046875 C 1.796875 -4.265625 1.984375 -3.554688 2.359375 -2.921875 C 2.742188 -2.285156 3.257812 -1.78125 3.90625 -1.40625 C 4.5625 -1.039062 5.300781 -0.859375 6.125 -0.859375 C 7.164062 -0.859375 8.046875 -1.117188 8.765625 -1.640625 Z M 8.765625 -5.046875 "/></g></g></g><g fill="#ffffff" fill-opacity="1"><g transform="translate(159.936428, 164.097649)"><g><path d="M 5.71875 0.09375 C 4.40625 0.09375 3.382812 -0.28125 2.65625 -1.03125 C 1.925781 -1.789062 1.5625 -2.882812 1.5625 -4.3125 L 1.5625 -10.109375 L 2.625 -10.109375 L 2.625 -4.359375 C 2.625 -3.179688 2.890625 -2.300781 3.421875 -1.71875 C 3.953125 -1.144531 4.71875 -0.859375 5.71875 -0.859375 C 6.726562 -0.859375 7.5 -1.144531 8.03125 -1.71875 C 8.5625 -2.300781 8.828125 -3.179688 8.828125 -4.359375 L 8.828125 -10.109375 L 9.859375 -10.109375 L 9.859375 -4.3125 C 9.859375 -2.882812 9.492188 -1.789062 8.765625 -1.03125 C 8.046875 -0.28125 7.03125 0.09375 5.71875 0.09375 Z M 5.71875 0.09375 "/></g></g></g><g fill="#ffffff" fill-opacity="1"><g transform="translate(174.402255, 164.097649)"><g><path d="M 1.640625 -10.109375 L 2.71875 -10.109375 L 2.71875 0 L 1.640625 0 Z M 1.640625 -10.109375 "/></g></g></g><g fill="#ffffff" fill-opacity="1"><g transform="translate(181.794894, 164.097649)"><g><path d="M 1.640625 -10.109375 L 2.71875 -10.109375 L 2.71875 -0.921875 L 8.375 -0.921875 L 8.375 0 L 1.640625 0 Z M 1.640625 -10.109375 "/></g></g></g><g fill="#ffffff" fill-opacity="1"><g transform="translate(193.330394, 164.097649)"><g><path d="M 1.640625 -10.109375 L 2.71875 -10.109375 L 2.71875 -0.921875 L 8.375 -0.921875 L 8.375 0 L 1.640625 0 Z M 1.640625 -10.109375 "/></g></g></g><g fill="#ffffff" fill-opacity="1"><g transform="translate(204.865895, 164.097649)"><g><path d="M 8.796875 -0.921875 L 8.796875 0 L 1.640625 0 L 1.640625 -10.109375 L 8.578125 -10.109375 L 8.578125 -9.1875 L 2.71875 -9.1875 L 2.71875 -5.59375 L 7.9375 -5.59375 L 7.9375 -4.671875 L 2.71875 -4.671875 L 2.71875 -0.921875 Z M 8.796875 -0.921875 "/></g></g></g><g fill="#ffffff" fill-opacity="1"><g transform="translate(217.556208, 164.097649)"><g><path d="M 10.09375 -10.109375 L 10.09375 0 L 9.21875 0 L 2.71875 -8.203125 L 2.71875 0 L 1.640625 0 L 1.640625 -10.109375 L 2.53125 -10.109375 L 9.03125 -1.90625 L 9.03125 -10.109375 Z M 10.09375 -10.109375 "/></g></g></g></svg>