<?xml version="1.0" standalone="no"?>
<!DOCTYPE svg PUBLIC "-//W3C//DTD SVG 1.1//EN" "http://www.w3.org/Graphics/SVG/1.1/DTD/svg11.dtd">
<svg xmlns="http://www.w3.org/2000/svg" xmlns:xlink="http://www.w3.org/1999/xlink" id="visual" viewBox="0 0 960 540" width="960" height="540" version="1.1"><rect x="0" y="0" width="960" height="540" fill="#0871E0"/><path d="M0 382L20 374.5C40 367 80 352 120 349.5C160 347 200 357 240 368.2C280 379.3 320 391.7 360 399.8C400 408 440 412 480 404.7C520 397.3 560 378.7 600 380.2C640 381.7 680 403.3 720 413.7C760 424 800 423 840 416.7C880 410.3 920 398.7 940 392.8L960 387L960 541L940 541C920 541 880 541 840 541C800 541 760 541 720 541C680 541 640 541 600 541C560 541 520 541 480 541C440 541 400 541 360 541C320 541 280 541 240 541C200 541 160 541 120 541C80 541 40 541 20 541L0 541Z" fill="#FFF" stroke-linecap="round" stroke-linejoin="miter"/></svg>